<?xml version="1.0" encoding="UTF-8" standalone="no"?>
<!-- Created with Inkscape (http://www.inkscape.org/) -->

<svg
   version="1.1"
   id="svg1"
   width="1280"
   height="900"
   viewBox="0 0 1280 900"
   sodipodi:docname="namerrsLogo.svg"
   inkscape:version="1.4 (86a8ad7, 2024-10-11)"
   xmlns:inkscape="http://www.inkscape.org/namespaces/inkscape"
   xmlns:sodipodi="http://sodipodi.sourceforge.net/DTD/sodipodi-0.dtd"
   xmlns="http://www.w3.org/2000/svg"
   xmlns:svg="http://www.w3.org/2000/svg">
  <defs
     id="defs1" />
  <sodipodi:namedview
     id="namedview1"
     pagecolor="#ffffff"
     bordercolor="#000000"
     borderopacity="0.25"
     inkscape:showpageshadow="2"
     inkscape:pageopacity="0.0"
     inkscape:pagecheckerboard="0"
     inkscape:deskcolor="#d1d1d1"
     inkscape:zoom="0.81666667"
     inkscape:cx="639.79592"
     inkscape:cy="450"
     inkscape:window-width="2880"
     inkscape:window-height="1514"
     inkscape:window-x="2869"
     inkscape:window-y="-11"
     inkscape:window-maximized="1"
     inkscape:current-layer="g1" />
  <g
     inkscape:groupmode="layer"
     inkscape:label="Image"
     id="g1">
    <path
       style="display:inline;fill:#000000;fill-opacity:1"
       d="m 749.76257,832.48877 c -7.51466,-4.22609 -8.06649,-18.66008 -1.02083,-26.70139 1.35876,-1.55076 1.20561,-1.9608 -1.62059,-4.33889 -6.10229,-5.13474 -3.37913,-13.95543 5.77455,-18.70453 2.85501,-1.48123 4.9399,-2.28698 4.63309,-1.79055 -0.30681,0.49643 0.34918,1.19047 1.45775,1.54232 4.45289,1.41329 5.06629,8.33526 0.93459,10.54648 C 756.75821,794.73495 753,791.86813 753,787.76266 c 0,-3.00351 -0.1,-3.09123 -1.7,-1.49123 -2.46169,2.46169 -2.17863,8.16441 0.54939,11.06825 l 2.24938,2.39436 3.66206,-1.86702 c 4.36918,-2.22753 7.23917,-2.40181 7.23917,-0.4396 0,2.09204 -4.68029,5.42198 -8.67366,6.17114 -4.10274,0.76967 -5.80289,4.04765 -4.81914,9.2915 0.79155,4.21935 5.50557,9.10994 8.78102,9.10994 5.68809,0 9.90726,-6.93302 6.12796,-10.06957 -2.08027,-1.72647 -4.94651,0.022 -4.83678,2.95057 0.1091,2.91162 -1.37552,2.66058 -2.80377,-0.4741 -0.95207,-2.08957 -0.88896,-3.10902 0.325,-5.25 1.44151,-2.54229 1.86542,-2.6569 9.8273,-2.6569 7.88708,0 8.42762,-0.14184 10.37012,-2.72111 1.72276,-2.2875 1.8657,-3.12408 0.89707,-5.25 C 779.50724,797.01917 778.21557,796 776.99005,796 c -2.44962,0 -3.65709,2.49133 -2.1106,4.35474 C 776.09374,801.81787 775.4028,803 773.33333,803 771.29019,803 768,799.25109 768,796.92308 768,794.20193 773.25243,789 776,789 c 1.18462,0 3.46923,1.31538 5.07692,2.92308 3.82455,3.82455 3.95593,8.696 0.35008,12.98131 -2.57115,3.05564 -9.49576,5.78918 -11.51064,4.54392 -0.69741,-0.43102 -0.83276,1.27525 -0.41291,5.20524 0.52687,4.93177 0.26256,6.54132 -1.68943,10.28791 -1.27271,2.4428 -3.47798,5.28826 -4.9006,6.32323 -3.52944,2.56774 -9.73459,3.14531 -13.15085,1.22408 z m 10.65564,-32.09576 c 0.86999,-0.33384 1.58179,-1.00884 1.58179,-1.5 0,-1.43081 -2.64144,-1.02998 -4,0.60699 -1.31975,1.59021 -0.34077,1.95173 2.41821,0.89301 z m -0.0479,-14.17053 C 759.0617,784.1444 756,783.35659 756,785.09794 c 0,0.68452 0.75437,2.07814 1.67637,3.09695 2.13355,2.35754 4.38338,0.71031 2.69397,-1.97241 z m -79.36619,41.28253 c -2.06216,-2.48476 1.25826,-6.11072 9.26796,-10.1208 8.49214,-4.25161 7.31197,-3.34102 8.24266,-6.35985 0.73684,-2.39004 0.63621,-2.3641 -2.91056,0.75 C 692.86481,814.17959 690.97848,815 688.18771,815 684.03512,815 680,812.7117 680,810.35679 c 0,-1.12581 -1.10838,-0.7147 -4.197,1.5567 -4.72653,3.47592 -10.59837,4.14828 -13.23157,1.51508 -2.06441,-2.0644 -2.00681,-2.50791 0.87773,-6.75851 3.33702,-4.91738 3.58717,-7.09373 0.85998,-7.48186 -3.55529,-0.50599 -6.94068,2.52092 -10.48418,9.374 -3.29651,6.37538 -3.36132,6.43043 -7.57496,6.4341 -4.78959,0.004 -4.80631,-0.0198 -2.76425,-3.96875 l 1.48575,-2.87313 -5.08624,3.42279 C 633.25701,816.03769 626,816.20274 626,811.89301 c 0,-2.41473 -0.1768,-2.39137 -4.59514,0.60699 -2.46936,1.67576 -5.05565,2.5 -7.84441,2.5 C 608.83418,815 607,813.66178 607,810.21349 v -2.38651 l -4.197,3.08651 c -4.72653,3.47592 -10.59837,4.14828 -13.23157,1.51508 -2.06441,-2.0644 -2.00681,-2.50791 0.87773,-6.75851 3.33702,-4.91738 3.58717,-7.09373 0.85998,-7.48186 -3.55529,-0.50599 -6.94068,2.52092 -10.48418,9.374 -3.29651,6.37538 -3.36132,6.43043 -7.57496,6.4341 -4.62237,0.004 -4.77458,-0.14759 -3.16587,-3.1535 0.98662,-1.84351 0.6864,-1.79263 -3.33786,0.56574 -6.62223,3.88089 -12.17999,3.39582 -12.89545,-1.12549 -0.34859,-2.20284 -0.37882,-2.19807 -4.7513,0.75 -3.15518,2.12732 -5.59671,2.96695 -8.62756,2.96695 -8.35264,0 -8.47277,-5.87304 -0.2447,-11.96349 2.57351,-1.90491 4.58767,-3.54081 4.47592,-3.63532 -0.9076,-0.76761 -11.99429,2.54446 -13.75527,4.10928 l -2.23893,1.98953 1.23815,-2.35736 c 0.89542,-1.70482 0.9357,-2.65981 0.14551,-3.45 -1.63489,-1.63489 -1.35188,-2.47668 1.44991,-4.31248 2.42279,-1.58747 2.63754,-1.56398 4.55925,0.49873 1.81581,1.94904 2.66505,2.09824 8.5256,1.49781 l 6.50891,-0.66686 -3.06816,3.06816 c -3.82945,3.82946 -4.02477,6.9438 -0.4911,7.83069 3.73126,0.93649 7.35981,-1.42522 9.75072,-6.34644 1.96018,-4.03464 2.30043,-4.26225 6.3715,-4.26225 4.70274,0 4.91447,0.30239 2.80073,4 -2.25956,3.95269 -1.92109,7 0.77749,7 3.35772,0 6.1193,-2.33591 8.18977,-6.92739 1.74929,-3.87924 2.04802,-4.07261 6.2916,-4.07261 3.55632,0 4.33858,0.3037 3.87746,1.50536 -0.45841,1.19458 0.23386,1.09136 3.35317,-0.5 4.68845,-2.39186 10.26908,-2.60366 12.05037,-0.45733 1.05605,1.27246 0.98589,2.17476 -0.39412,5.06868 -1.91417,4.01404 -1.48412,5.38329 1.69077,5.38329 2.98518,0 6.34617,-2.4857 8.19488,-6.0607 1.37311,-2.6553 1.36685,-2.9393 -0.0647,-2.9393 -3.01724,0 -0.49423,-1.73997 3.43379,-2.36809 2.16963,-0.34694 5.28206,-1.75605 6.91652,-3.13135 3.8866,-3.27036 4.57349,-3.15631 2.70871,0.44978 -1.95458,3.77974 -1.94627,3.82955 0.72432,4.34393 1.91801,0.36942 1.84185,0.45346 -0.51618,0.56955 -2.09877,0.10332 -3.15841,0.9587 -4.39187,3.54529 -1.95398,4.09753 -1.23363,6.59089 1.90416,6.59089 3.38821,0 6.14474,-2.32273 8.22115,-6.92739 1.73948,-3.85748 2.06617,-4.07261 6.18461,-4.07261 4.75143,0 4.96404,0.2986 2.84813,4 -0.78602,1.375 -1.44508,3.5125 -1.46456,4.75 -0.0824,5.23491 9.27119,0.75237 11.95617,-5.72975 1.12895,-2.72553 1.68875,-3.02025 5.7367,-3.02025 3.58352,0 4.36949,0.30276 3.90801,1.50536 -0.45841,1.19458 0.23386,1.09136 3.35317,-0.5 4.68845,-2.39186 10.26908,-2.60366 12.05037,-0.45733 1.05605,1.27246 0.98589,2.17476 -0.39412,5.06868 -1.9641,4.11876 -1.48754,5.38329 2.0288,5.38329 1.68181,0 3.80002,-1.33196 6.19098,-3.89297 4.64509,-4.97547 9.50475,-7.40403 14.6003,-7.29634 2.2188,0.0469 6.86687,0.0798 10.32904,0.0732 l 6.29486,-0.0121 -3.60904,7.16661 c -1.98497,3.94163 -3.34871,7.42693 -3.03053,7.74511 0.31818,0.31818 3.38456,-1.34733 6.81418,-3.70114 5.22666,-3.58715 5.78384,-3.8027 3.44336,-1.33212 -1.53577,1.62115 -4.99506,3.97925 -7.68732,5.24024 -3.17691,1.48799 -5.2915,3.2499 -6.02463,5.01984 -3.41658,8.24835 -18.05737,15.23515 -21.99159,10.49471 z m 13.10259,-4.56806 c 0.95064,-1.34032 2.03778,-3.50281 2.41587,-4.80552 l 0.68743,-2.36858 -3.19355,1.86858 c -3.65971,2.14133 -5.42945,4.85004 -4.59297,7.02987 0.7539,1.96462 2.53081,1.31036 4.68322,-1.72435 z m 5.43871,-17.3915 c 3.7953,-3.7953 2.93342,-8.54545 -1.55051,-8.54545 -0.46282,0 -2.22602,1.165 -3.91821,2.58889 -2.86076,2.40717 -4.02054,6.13397 -2.41006,7.74444 1.46201,1.46201 5.55848,0.53243 7.87878,-1.78788 z m 113.52713,16.81969 c -2.86696,-3.64475 -2.66343,-9.26564 0.56628,-15.63916 2.42512,-4.78576 2.70666,-5.02425 3.47597,-2.94459 2.22939,6.02659 8.49179,1.64973 11.33416,-7.92158 1.61939,-5.45296 2.25977,-28.85981 0.7896,-28.85981 -0.41879,0 -2.96346,1.4625 -5.65483,3.25 l -4.8934,3.25 -0.32193,6.80325 c -0.35595,7.52235 -2.7885,14.02602 -6.48256,17.33181 -3.5197,3.14975 -6.37387,3.73405 -8.39028,1.71764 -3.79162,-3.79162 0.31008,-16.86685 8.56863,-27.31469 2.70074,-3.4167 3.70054,-5.50017 3.23505,-6.74148 -0.57825,-1.54199 -0.44726,-1.61254 0.9245,-0.49797 1.10157,0.89503 1.80415,0.96534 2.26094,0.22623 0.3645,-0.58978 4.56706,-3.71173 9.33903,-6.93768 8.55767,-5.78516 12.85185,-9.67174 15.01203,-13.58711 l 1.10344,-2 0.0206,2 c 0.033,3.1974 -4.45543,11.93594 -8.33823,16.23373 l -3.57275,3.95461 1.97558,10.19129 c 2.42067,12.48734 2.6181,28.04446 0.43458,34.24464 -2.22403,6.31523 -5.92195,11.20561 -10.3589,13.69931 -5.20328,2.92441 -8.47351,2.78846 -11.02752,-0.45844 z m -3.2817,-29.93122 C 814.13745,789.38946 818.90135,776 815.63798,776 c -2.16328,0 -10.39252,9.60596 -11.13837,13.00178 -1.09202,4.97195 1.08075,6.3813 5.29127,3.43214 z M 465.7212,813.62809 c -2.62833,-0.73344 -5.91201,-2.39814 -7.29706,-3.69933 -5.1198,-4.8098 -1.2559,-11.471 7.3212,-12.62143 3.4936,-0.46859 4.04966,-0.29031 3.91342,1.25474 -0.23982,2.71991 4.27,4.86147 8.54761,4.05899 4.99134,-0.93638 8.05938,-3.63748 14.38447,-12.66406 3.00548,-4.28914 7.01849,-9.16285 8.91779,-10.83046 2.06973,-1.81725 3.02522,-3.29659 2.38485,-3.69236 -0.58765,-0.36318 -5.41658,-0.65167 -10.73098,-0.64108 -10.27246,0.0205 -16.7881,1.63006 -18.6043,4.59594 -2.42091,3.95338 6.53507,6.16543 12.49143,3.08528 2.67448,-1.38303 2.95034,-1.37583 2.95034,0.0769 0,2.54386 -5.29592,7.15979 -9.5788,8.34891 -5.50439,1.52826 -8.28705,1.34378 -13.1712,-0.87322 -3.815,-1.73169 -4.25,-2.28496 -4.25,-5.40546 0,-4.35323 3.11669,-7.01811 10.83073,-9.26064 5.47497,-1.59162 19.86146,-2.28169 29.66927,-1.42314 2.75,0.24072 5.9,0.0858 7,-0.34434 1.53793,-0.60134 1.66014,-0.54175 0.52896,0.25794 -1.75581,1.24128 -1.75001,1.24702 4.01436,3.97606 13.75527,6.5122 15.94808,19.9437 3.79044,23.21741 -11.18063,3.01064 -23.2872,-5.42542 -15.29819,-10.66002 2.37669,-1.55727 2.74675,-1.54764 5.90585,0.15364 3.18489,1.71518 3.51297,1.72152 5.96443,0.11527 3.58034,-2.34594 3.40383,-6.09487 -0.45677,-9.70121 -1.678,-1.56749 -4.02122,-3.15795 -5.20716,-3.53435 -3.18385,-1.01052 -7.05116,4.19985 -11.34766,15.2885 -1.97371,5.09386 -4.85441,11.00901 -6.40155,13.14478 -5.11727,7.06418 -16.62147,10.46958 -26.27148,7.77672 z m -37.64487,-19.55974 c -0.99081,-0.62708 -0.40885,-0.85045 1.91417,-0.73468 3.24216,0.16156 3.34027,0.0517 3.42364,-3.83367 0.0834,-3.88841 0.18347,-4 3.58583,-4 3.19546,0 3.52664,0.27443 3.80619,3.15394 0.22948,2.3637 -0.26474,3.55383 -1.9725,4.75 -2.47757,1.73535 -8.47949,2.10605 -10.75733,0.66441 z m 205.45229,-2.42374 C 630.50804,789.43589 632.27469,787 636.89719,787 c 4.6899,0 7.83726,2.41012 6.01488,4.60595 -1.47687,1.77952 -6.97169,1.80216 -9.38342,0.0387 z m -72,-1 C 558.50804,788.43589 560.27469,786 564.89719,786 c 4.6899,0 7.83726,2.41012 6.01488,4.60595 -1.47687,1.77952 -6.97169,1.80216 -9.38342,0.0387 z M 845,776.91204 c 0,-3.45409 0.8531,-4.76397 8.14341,-12.50365 l 8.14341,-8.64537 -0.5272,4.67727 c -0.47254,4.19232 -1.31686,5.48873 -8.14341,12.50365 L 845,780.77033 Z m -423.5931,1.68145 C 411.67307,776.23046 406,771.1014 406,764.66401 c 0,-3.30816 -0.13692,-3.42461 -4.75,-4.03969 -7.91349,-1.05514 -14.549,-6.72532 -11.4716,-9.80272 1.20527,-1.20527 7.68509,-2.76035 11.7216,-2.81306 1.65,-0.0215 3.675,-0.49142 4.5,-1.04417 1.27505,-0.85428 1.12509,-1.31989 -1,-3.10471 -2.26765,-1.90457 -3.29001,-2.03935 -11,-1.45022 -4.675,0.35723 -10.3,0.88945 -12.5,1.18271 -3.41264,0.45491 -4.51394,0.0943 -7.5,-2.4559 l -3.5,-2.98911 4.25,-0.70138 c 2.3375,-0.38576 4.25,-1.00383 4.25,-1.37349 0,-1.51674 -13.24141,-3.45391 -24,-3.51112 -10.71507,-0.057 -11.90953,-0.26591 -17.5,-3.06115 -4.93333,-2.46667 -6,-3.44444 -6,-5.5 0,-2.27999 0.42613,-2.52715 4.84227,-2.80856 3.074,-0.19588 8.29893,0.6721 14.30809,2.37689 7.35299,2.08604 9.95508,2.44903 11.65774,1.62624 1.9479,-0.9413 1.74662,-1.06919 -1.8081,-1.14885 -5.31262,-0.11906 -12.22971,-3.3584 -13.60183,-6.36986 -1.21872,-2.67481 0.16645,-6.60114 2.38701,-6.76611 0.66815,-0.0496 -2.12544,-0.69483 -6.20798,-1.43376 -7.90526,-1.43084 -12.38946,-3.92582 -12.87546,-7.16382 -0.46213,-3.07905 1.80379,-4.22996 12.34877,-6.27222 l 9.7619,-1.89059 3.75905,3.15591 3.75905,3.15591 -6.08761,1.24176 c -7.2842,1.48585 -8.81758,2.65095 -6.51683,4.9517 1.1387,1.1387 4.43081,1.87149 10.76491,2.39618 10.78094,0.89303 19.64697,4.632 21.81359,9.19918 0.71751,1.5125 1.80003,2.75 2.40561,2.75 1.30561,0 8.09342,5.02973 7.53773,5.58542 -0.21089,0.2109 -3.95295,1.08364 -8.31568,1.93943 -14.06333,2.75865 -13.50177,2.50237 -8.99152,4.10353 5.88087,2.08774 13.38951,2.69364 19.49824,1.57339 5.28065,-0.9684 5.54824,-0.9058 9.19347,2.1504 3.02953,2.53999 3.43588,3.2609 2.10438,3.73341 -1.12358,0.39873 -0.0877,1.11795 3.2463,2.25396 9.45588,3.22194 12.4606,8.74895 5.7669,10.60788 -2.0625,0.57278 -4.28594,1.04394 -4.94098,1.047 -1.88895,0.009 -2.59264,1.95891 -1.27835,3.54253 0.85206,1.02667 2.30953,1.27238 4.99768,0.84253 2.7664,-0.44237 4.83509,-0.0609 7.63324,1.40743 2.11113,1.10784 6.80944,2.76597 10.4407,3.68474 7.01192,1.77412 12.89771,4.78285 12.89771,6.59311 0,0.68178 -1.07035,0.85906 -2.84002,0.47038 -2.34632,-0.51534 -3.56363,0.0358 -7.00259,3.17054 l -4.16258,3.79432 5.2526,1.13778 5.25259,1.13778 -6,0.0272 c -3.3,0.0149 -8.29189,-0.52922 -11.0931,-1.20925 z m 7.63501,-9.34349 c 3.27543,-0.9625 5.95594,-2.0282 5.9567,-2.36822 7.7e-4,-0.34003 -2.78284,-1.39944 -6.18579,-2.35426 -5.66621,-1.58986 -6.28595,-1.60096 -7.36024,-0.13178 -0.64519,0.88234 -2.13596,1.60426 -3.31282,1.60426 -2.76412,0 -2.7287,1.47408 0.0827,3.4433 2.79754,1.95948 3.53848,1.94624 10.8194,-0.1933 z M 352.5,728.59863 l 4,-1.24767 -4.70687,-1.04505 C 344.95665,724.78802 339.74061,726.15325 341.5,729 c 0.823,1.33164 6.05617,1.14069 11,-0.40137 z m 24.94001,-7.54884 C 380.69005,718.35249 375.81578,715 368.64408,715 c -7.51243,0 -10.00398,4.5271 -3.80807,6.91916 3.27048,1.26264 10.64826,0.75375 12.604,-0.86937 z m 493.80013,45.40913 C 860.99508,762.1512 869.33706,740 881.20437,740 885.4839,740 887,741.50408 887,745.74966 c 0,4.22927 -2.16818,8.47529 -5.4137,10.60184 -3.22528,2.11328 -3.17214,2.13154 -3.12572,-1.07404 0.0479,-3.30736 -2.74708,-4.23315 -5.43529,-1.80035 -2.3239,2.1031 -2.9471,4.50197 -1.90289,7.32473 2.70958,7.32471 15.37191,2.69891 19.98756,-7.30184 3.34125,-7.23953 2.685,-9.64848 -4.85996,-17.83974 l -6.75,-7.32821 -3,2.21592 c -7.20721,5.32353 -14.69399,7.19577 -17.95437,4.4899 -2.26113,-1.87657 -1.95868,-8.24304 0.54267,-11.42299 2.43387,-3.09416 6.90119,-5.61488 9.95093,-5.61488 2.08716,0 2.07634,0.0739 -0.45034,3.07673 -5.6586,6.72486 -0.48059,11.92594 7.29832,7.33082 2.54338,-1.5024 2.67419,-1.94061 2.31359,-7.75 -0.50523,-8.13933 2.50401,-16.27069 8.23488,-22.25177 9.94885,-10.38318 14.16054,-0.45482 6.06282,14.29207 l -3.40333,6.19785 3.55543,2.19738 c 5.27278,3.25875 7.34139,7.31632 7.34487,14.40692 0.008,16.78374 -17.53857,35.67522 -28.75533,30.95892 z M 888.74723,715.75 c 5.24114,-6.60345 1.87972,-18.34232 -3.78448,-13.21629 -2.38592,2.15923 -2.58351,7.36519 -0.43707,11.51595 1.66114,3.2123 2.69198,3.62749 4.22155,1.70034 z m -233.5024,50 c -0.55003,-0.6875 -1.31045,-2.2625 -1.68983,-3.5 -0.81595,-2.66156 -2.23282,-2.85154 -4.68901,-0.62872 -3.20968,2.90471 -4.51052,1.11216 -5.21159,-7.18153 C 643.29448,750.18192 643,741.85294 643,735.93091 c 0,-5.92203 -0.27314,-11.47914 -0.60699,-12.34912 -0.72439,-1.88775 -3.01272,-2.09012 -3.75164,-0.33179 -0.37617,0.89515 -0.83975,0.75321 -1.63302,-0.5 -2.32288,-3.66971 -4.00196,-2.04471 -4.13311,4 l -0.12475,5.75 -0.7537,-5.14882 c -1.18987,-8.12855 -3.11703,-9.67313 -5.37345,-4.30669 l -1.28011,3.04448 -1.22014,-4.07246 c -0.79036,-2.63799 -3.85159,-6.96623 -8.69081,-12.28782 -8.90726,-9.79515 -9.96315,-12.29854 -14.87814,-35.27424 -4.14405,-19.37189 -6.29843,-23.88002 -13.91333,-29.11434 -4.69465,-3.22701 -5.20258,-3.34302 -15,-3.42606 -7.74645,-0.0657 -9.43248,-0.30187 -7.14081,-1.00041 1.65,-0.50295 7.56444,-0.87003 13.1432,-0.81574 9.80334,0.0954 10.45258,-0.0386 19.37628,-3.99959 10.83542,-4.80955 15.2194,-5.13154 22.66546,-1.66469 6.00741,2.79702 7.4727,5.11911 9.372,14.85208 0.72829,3.73214 1.88136,7.24813 2.56236,7.81331 0.89519,0.74294 3.95889,-0.61442 11.05945,-4.89982 19.5236,-11.78311 29.27781,-15.6712 32.13841,-12.8106 1.27936,1.27936 1.3461,2.17283 0.39402,5.27497 -0.63042,2.05411 -0.94311,3.93785 -0.69486,4.18609 0.51596,0.51596 5.0537,-0.22401 33.15259,-5.40618 11.09291,-2.04582 20.83797,-3.46294 21.65571,-3.14914 2.98651,1.14603 2.98294,6.22224 -0.009,12.35511 -3.21277,6.58623 -4.87941,7.62886 -6.28502,3.93184 -1.06625,-2.80445 -2.44845,-3.29885 -3.72188,-1.33128 -0.44496,0.6875 -1.05353,9.575 -1.35237,19.75 l -0.54336,18.5 -0.20664,-17.62756 c -0.22471,-19.16807 -0.98543,-21.98103 -4.80486,-17.76721 -1.6791,1.85248 -1.96541,4.28182 -2.44514,20.74647 l -0.54336,18.6483 -0.20664,-18.75 c -0.22665,-20.5648 -0.46254,-21.22367 -5.65731,-15.8015 -1.55366,1.62168 -3.76409,3.08418 -4.91206,3.25 -1.14797,0.16583 -2.552,1.23783 -3.12007,2.38223 -0.56807,1.1444 -1.57905,1.89866 -2.24662,1.67613 -0.66758,-0.22252 -2.28565,0.66729 -3.59573,1.97737 -1.39401,1.39402 -4.70397,2.90161 -7.98037,3.63483 -3.94817,0.88356 -5.77733,1.81659 -6.20539,3.16528 -0.44512,1.40246 -1.90889,2.08512 -5.48941,2.56009 C 665.37816,682.2075 661,684.87811 661,687.08412 661,688.70103 670.95958,703 672.0858,703 c 1.92917,0 6.1508,11.19305 7.48641,19.84916 0.73414,4.75796 2.29001,11.1084 3.45749,14.11209 1.16748,3.00369 1.91911,6.52622 1.67028,7.82785 -0.24882,1.30163 -0.0449,4.18023 0.45315,6.39689 0.81536,3.62893 0.65365,4.26374 -1.62379,6.3744 -1.39114,1.28926 -2.52934,2.8156 -2.52934,3.39186 0,1.39871 -3.30848,1.33927 -4.73278,-0.085 -1.7622,-1.7622 -4.01062,-0.31201 -4.75238,3.06521 -0.97588,4.44316 -3.78732,4.00732 -6.01484,-0.93243 -0.99206,-2.2 -2.41405,-4 -3.15997,-4 -0.74592,0 -2.07644,1.8 -2.95671,4 -1.69292,4.23104 -2.51602,4.77798 -4.13849,2.75 z m 248.25231,-41.7778 c -2.2064,-21.45737 -1.39732,-31.6878 3.23854,-40.94952 7.12505,-14.23474 10.91997,-0.58315 5.14115,18.49446 -1.16335,3.84058 -2.28735,8.55786 -2.49778,10.48286 l -0.38261,3.5 1.46433,-3.79304 C 914.70386,700.71615 921,698.50161 921,708 c 0,3.82515 0.93221,6 2.57181,6 2.44814,0 3.67274,-4.18996 3.62765,-12.41204 -0.0377,-6.86746 0.27206,-8.42749 2.05241,-10.33796 2.87835,-3.08871 3.74813,-2.82765 3.74813,1.125 0,6.07195 1.11748,9.625 3.02717,9.625 3.45938,0 5.7216,-13.3917 2.47283,-14.63837 -1.66775,-0.63998 -2.0286,-5.97787 -0.5609,-8.29733 0.78331,-1.2379 1.14296,-1.24108 2.61051,-0.0231 1.52276,1.26378 2.15222,0.89365 5.97587,-3.5139 l 4.27384,-4.92646 -0.523,4.64008 c -0.75768,6.72209 0.26145,9.96473 3.00903,9.57403 3.14106,-0.44665 5.23244,-6.87636 4.28712,-13.18025 -0.53487,-3.56674 -1.08365,-4.65249 -2.14558,-4.24499 -1.95414,0.74988 -1.79419,-0.0651 0.70035,-3.56837 1.16998,-1.64309 2.92893,-5.53755 3.90878,-8.65437 l 1.78155,-5.66694 0.0912,4.40499 c 0.0899,4.33997 0.12074,4.37827 2.09122,2.59501 1.69252,-1.53171 2,-1.57198 2,-0.26198 0,0.8514 -0.73014,1.82818 -1.62253,2.17063 -1.30804,0.50194 -1.53382,1.69247 -1.16481,6.14218 0.52701,6.35502 1.89074,8.43817 4.24496,6.48434 0.93699,-0.77763 1.54238,-2.91094 1.54238,-5.43511 0,-2.28528 0.72219,-5.18612 1.60488,-6.44633 0.88268,-1.26021 1.969,-3.49783 2.41404,-4.97251 l 0.80917,-2.68122 0.086,2.75 c 0.0473,1.5125 0.53595,2.75 1.08595,2.75 0.55,0 1,1.3875 1,3.08333 0,3.6907 1.89164,3.51648 3.7761,-0.34777 1.06257,-2.17892 0.99542,-3.73412 -0.40136,-9.29473 -1.59595,-6.35351 -1.74126,-6.56289 -2.99066,-4.3094 -2.08928,3.76834 -1.58989,1.19231 0.60163,-3.10342 1.97158,-3.86462 3.71504,-5.66059 4.61826,-4.75737 0.259,0.259 -0.0303,1.57101 -0.64296,2.91558 -0.94413,2.07215 -0.68317,3.15368 1.71256,7.09762 1.55454,2.55912 3.11145,4.66717 3.4598,4.68455 0.78775,0.0393 1.80876,-3.64345 1.93192,-6.96839 0.0509,-1.375 0.31764,-1.94332 0.59268,-1.26293 0.8805,2.17816 -1.66815,15.61566 -3.80097,20.04021 -2.37517,4.92733 -6.76667,7.69079 -10.90605,6.86291 -2.62205,-0.52441 -2.83624,-0.28681 -3.95846,4.39111 -2.15841,8.99727 -7.44205,12.80592 -10.27212,7.40454 -1.30307,-2.487 -1.37877,-2.37446 -2.51588,3.74002 -1.66538,8.95514 -6.28299,14.66373 -9.62067,11.89371 -2.00827,-1.66672 -2.12294,-10.55534 -0.23031,-17.85164 0.74444,-2.86986 1.22252,-5.21793 1.06242,-5.21793 -0.16011,0 -1.51571,2.25 -3.01245,5 -1.49673,2.75 -3.03525,5 -3.41893,5 -0.38367,0 -1.00057,4.01349 -1.37088,8.91887 -0.83125,11.01145 -2.97441,18.51997 -5.86383,20.5438 -3.08039,2.15758 -3.66547,1.96761 -5.20317,-1.6895 l -1.35677,-3.22682 -1.24506,6.32849 C 925.79413,722.72377 922.1903,729 919.98253,729 917.30298,729 916,725.56061 916,718.48759 c 0,-7.83557 -1.08781,-9.83326 -3.84596,-7.06285 -1.35974,1.36578 -1.65404,3.85869 -1.65404,14.01076 0,10.73983 -0.24828,12.62406 -1.90499,14.45694 -1.04774,1.15916 -2.20629,2.10756 -2.57455,2.10756 -0.36826,0 -1.50376,-8.11251 -2.52332,-18.0278 z M 910.67205,696.5 c 0.39878,-5.43527 0.16178,-7.44707 -1.06023,-9 -1.36629,-1.73628 -1.71599,-1.80221 -2.65207,-0.5 -1.0968,1.52578 -0.63581,14.15904 0.69062,18.92626 l 0.67508,2.42626 0.91651,-2.42626 c 0.50408,-1.33444 1.14762,-5.57626 1.43009,-9.42626 z m -359.25332,38.75 c -0.43738,-0.9625 -0.85177,-5.8 -0.92087,-10.75 -0.0691,-4.95 -0.46131,-22.5 -0.87157,-39 -0.41679,-16.76251 -0.35944,-31.32375 0.12995,-33 0.63784,-2.18468 1.57365,-3.08294 3.44335,-3.30518 l 2.56745,-0.30519 0.62052,31.80519 c 0.34128,17.49285 0.87821,37.31768 1.19318,44.05518 l 0.57267,12.25 h -2.96972 c -1.85868,0 -3.26723,-0.65471 -3.76496,-1.75 z m -94.55874,-11 c -0.77521,-1.95488 -0.89435,-25.29787 -0.41206,-80.73421 0.66391,-76.31215 0.72249,-78.05547 2.73242,-81.3076 1.68764,-2.73066 2.02831,-4.82906 1.91015,-11.76579 -0.0791,-4.64332 0.24984,-8.4424 0.73097,-8.4424 0.48113,0 1.70602,1.84335 2.72197,4.09633 1.69516,3.75919 1.81543,6.57805 1.46137,34.25 -0.2122,16.58452 -0.66007,56.25367 -0.99527,88.15367 -0.3352,31.9 -0.69947,58.1125 -0.8095,58.25 -0.11002,0.1375 -1.56118,0.25 -3.22479,0.25 -2.3687,0 -3.26128,-0.59646 -4.11526,-2.75 z m -95.21988,-27.31845 c -1.98736,-1.56326 -2.66587,-2.89445 -2.44534,-4.79757 0.26071,-2.24978 0.74282,-2.60296 3.30523,-2.42131 3.37687,0.23938 7.78345,4.56134 7.29259,7.15254 -0.47175,2.49025 -5.02388,2.52729 -8.15248,0.0663 z m -39.05542,-5.99582 c -11.0197,-2.739 -25.57388,-13.0739 -29.64252,-21.04909 -2.35368,-4.6136 -2.53642,-11.14953 -0.37224,-13.31371 7.74074,-7.74074 30.85714,5.35138 29.26206,16.57276 -0.49393,3.47486 -4.95564,5.29863 -9.3858,3.83655 -3.78515,-1.24921 -8.93863,-5.16533 -10.40632,-7.90775 -0.78054,-1.45845 -0.50064,-1.64896 1.90412,-1.29602 1.55054,0.22757 3.13624,-0.0993 3.52378,-0.72633 1.0117,-1.63696 -2.12325,-5.97066 -5.15215,-7.12224 -3.44714,-1.3106 -5.76233,-0.43966 -7.19607,2.70706 -3.4357,7.54054 12.76094,22.73365 22.3229,20.93981 3.85601,-0.72339 6.37885,-3.23701 11.07318,-11.03271 l 3.49676,-5.80695 -3.93515,-4.26914 c -7.68226,-8.33427 -10.52083,-18.08984 -5.97194,-20.52432 4.90433,-2.62472 14.0611,2.54188 17.92372,10.11324 2.89253,5.66981 2.42871,6.46602 -1.75686,3.01591 -8.4798,-6.98976 -13.68286,-0.66978 -6.44331,7.82647 2.5271,2.96579 2.8738,3.07734 6.42913,2.06858 7.71848,-2.18999 22.12206,2.75314 29.83612,10.23938 6.5169,6.32443 4.69338,10.35475 -4.34562,9.60462 -2.92071,-0.24239 -7.90956,-1.7125 -11.24848,-3.3147 -3.3,-1.58352 -6.38978,-2.90568 -6.86619,-2.93814 -0.4764,-0.0325 -1.6014,1.91961 -2.5,4.33793 -0.89859,2.41831 -2.76519,5.23945 -4.14799,6.26918 -3.02031,2.24915 -11.00552,3.11072 -16.40113,1.76961 z M 361.75,677.25414 c 0.6875,-0.90002 1.25,-1.96773 1.25,-2.37269 0,-1.54842 -5.3876,-4.88128 -7.88486,-4.87771 -3.28487,0.005 -9.39804,3.64681 -8.8559,5.27618 0.60611,1.82165 8.87327,4.73172 11.74076,4.13279 1.375,-0.2872 3.0625,-1.25855 3.75,-2.15857 z m 442.45284,12.49027 c -0.57313,-0.69058 -1.29748,-2.37808 -1.60967,-3.75 -0.31219,-1.37193 -0.76246,-35.45691 -1.00059,-75.74441 L 801.1596,537 l 2.1702,0.0997 c 1.19361,0.0548 3.28563,0.41035 4.64893,0.79006 l 2.47872,0.69039 -0.2985,59.95993 c -0.20867,41.91329 0.0747,64.09211 0.9413,73.68906 1.39411,15.43775 0.78036,18.77088 -3.45637,18.77088 -1.31944,0 -2.86791,-0.56502 -3.44104,-1.25559 z m 119.09861,-4.40123 c -0.98142,-2.55753 1.89928,-6.80065 4.85235,-7.14728 3.35629,-0.39395 4.30589,2.01447 2.31344,5.86745 -1.71976,3.32565 -6.08178,4.10472 -7.16579,1.27983 z M 277.6705,650.75 C 266.01125,635.16458 241,586.89642 241,579.98115 241,577.6913 244.63729,575 247.73201,575 c 1.25784,0 6.16288,2.09565 10.90007,4.65701 8.6627,4.68384 10.31493,5.02713 19.85508,4.12535 2.90595,-0.27468 3.21861,0.15579 11.5,15.83353 4.68206,8.86374 10.50795,19.21374 12.94642,23 2.43847,3.78626 5.05795,7.86643 5.82107,9.06705 1.05841,1.66519 1.12436,2.67462 0.27805,4.25597 C 307.59031,638.63403 284.65988,654 282.08036,654 c -1.08822,0 -3.07265,-1.4625 -4.40986,-3.25 z M 769.625,642.875 C 769.28125,641.15625 769,626.05274 769,609.31164 v -30.43836 l 3.25,0.31336 3.25,0.31336 0.18486,13 c 0.10168,7.15 0.42453,20.99673 0.71745,30.77051 C 776.985,642.71257 776.44226,646 772.64975,646 c -1.88772,0 -2.5331,-0.66677 -3.02475,-3.125 z m 227.8026,-9.91998 C 986.5655,625.24689 981,620.63126 981,619.33115 c 0,-0.46173 3.82769,-7.9489 8.50597,-16.63815 4.67829,-8.68924 10.83183,-21.51236 13.67453,-28.49581 2.8426,-6.98346 5.595,-13.25969 6.1164,-13.94719 1.7898,-2.36004 5.0783,-1.23977 13.9431,4.75 7.1472,4.8292 9.653,6 12.8414,6 3.213,0 4.1684,0.45422 5.0569,2.40413 1.5062,3.30573 -3.3462,16.70935 -12.7053,35.09587 -10.7065,21.03334 -17.3222,31.5 -19.9104,31.5 -0.6421,0 -5.6348,-3.17024 -11.095,-7.04498 z m -444.83707,-0.13111 c -1.34061,-4.39941 -2.5929,-20.37995 -2.59181,-33.07391 L 550,585 h 4 4 l -0.11831,21.25 c -0.0651,11.6875 -0.40605,22.59451 -0.75771,24.23779 -0.66222,3.09446 -3.80834,4.71568 -4.53345,2.33612 z m 177.8506,-0.2416 c -1.79537,-1.31123 -1.96455,-2.98196 -2.25298,-22.25 C 727.80906,585.00777 728.07836,583 731.85418,583 c 1.51996,0 3.57982,0.59687 4.57748,1.32637 1.70175,1.24435 1.76814,2.82117 1.07366,25.5 C 736.77082,633.81192 736.74801,634 734.57366,634 c -1.20527,0 -3.06491,-0.63796 -4.13253,-1.41769 z m -42.85636,-3.27089 c -1.73303,-2.37595 -1.95551,-4.96528 -2.3386,-27.21858 -0.31787,-18.46467 -0.75036,-24.93301 -1.73563,-25.95798 -1.10571,-1.15028 -2.62634,-0.93313 -9.66139,1.37969 -11.77911,3.87246 -12.21845,4.37546 -11.43274,13.0895 0.55604,6.16684 0.38093,7.42014 -1.3273,9.5 -1.86967,2.27642 -2.10806,2.31862 -4.77848,0.84591 -2.75505,-1.51939 -2.81063,-1.72651 -2.81063,-10.47321 0,-10.41111 -1.06802,-11.43411 -7.37453,-7.0637 -4.72818,3.27663 -5.38087,3.24595 -10.59427,-0.49803 -5.32884,-3.82688 -8.54871,-3.63376 -9.75282,0.58498 -0.47095,1.65 -0.55666,11.87972 -0.19047,22.73271 0.60655,17.97697 0.51537,19.79043 -1.02483,20.38146 -0.92984,0.35681 -2.77811,0.15326 -4.10726,-0.45235 l -2.41665,-1.10109 -0.26958,-21.77638 -0.26959,-21.77637 -7.25,-2.87504 c -7.82973,-3.10494 -9.1459,-4.63065 -4,-4.63686 1.7875,-0.002 10,-1.1374 18.25,-2.52278 8.25,-1.38537 19.55189,-3.1641 25.1153,-3.95273 9.24912,-1.3111 21.95006,-3.29636 54.84879,-8.57334 7.46513,-1.19741 12.3175,-1.56564 12.90389,-0.97925 0.5864,0.5864 -3.76574,3.16383 -11.57364,6.85415 -6.88239,3.25289 -12.77223,6.33309 -13.08854,6.84488 -0.3163,0.51179 -0.84286,9.45858 -1.17012,19.88176 -0.48417,15.42081 -0.28058,20.64953 1.09289,28.06767 0.92835,5.01405 1.40582,9.85155 1.06105,10.75 -0.93519,2.43709 -3.93594,1.9185 -6.10485,-1.05502 z M 523.69377,614.25 c -1.97397,-4.27408 -2.22477,-6.67799 -2.50313,-23.99274 l -0.30935,-19.24274 2.68516,-2.48852 c 1.47684,-1.36869 3.09321,-2.23634 3.59193,-1.92812 0.52093,0.32196 0.63137,5.95188 0.25954,13.23127 -0.50104,9.80876 -0.28251,14.4119 0.96742,20.37869 2.51927,12.02617 1.92823,18.79216 -1.64157,18.79216 -0.47093,0 -1.84343,-2.1375 -3.05,-4.75 z m -30.64924,-29.14251 c -0.65897,-1.59087 -1.05106,-4.17837 -0.87133,-5.75 0.26459,-2.31351 0.87725,-2.92033 3.21829,-3.18757 3.68244,-0.42036 4.18703,0.48286 3.762,6.7339 -0.30859,4.53832 -0.59634,5.09618 -2.62868,5.09618 -1.57409,0 -2.65391,-0.89745 -3.48028,-2.89251 z M 389.5,574.40573 c -11.55,-1.31355 -21.47898,-2.57103 -22.0644,-2.7944 -0.58542,-0.22336 -5.94125,-8.57303 -11.90185,-18.55481 -5.96059,-9.98178 -11.55661,-18.52664 -12.4356,-18.98858 -0.87898,-0.46194 -8.12315,-0.44962 -16.09815,0.0274 -7.975,0.477 -18.07907,0.98819 -22.45349,1.13597 l -7.95349,0.2687 -3.04651,4.13712 c -1.67558,2.27542 -7.42772,10.86917 -12.78254,19.09723 l -9.73604,14.96011 -10.51405,-5.39366 -10.51406,-5.39365 -17.74991,4.57321 c -9.76245,2.51526 -18.47141,4.79553 -19.35324,5.06726 -1.07515,0.3313 -2.52735,-0.91287 -4.40828,-3.77678 C 203.15435,560.64923 187.64702,540.46186 179.08989,530.5 169.2618,519.05854 143.48482,493 141.99507,493 c -1.3812,0 -1.31274,0.94602 1.47114,20.3289 2.72837,18.9964 4.74152,42.81716 3.7025,43.81028 -0.53064,0.5072 -38.05722,7.45986 -44.16871,8.18327 -1.278,0.15127 -1.59256,-3.15252 -2.12537,-22.32245 -0.50304,-18.09856 -1.136961,-25.23867 -3.240588,-36.5 -3.459157,-18.51787 -7.388756,-34.35229 -13.616017,-54.86612 -2.815972,-9.27636 -4.984516,-17.55494 -4.818987,-18.39684 0.199458,-1.01447 5.352004,-3.14929 15.277465,-6.32981 l 14.976507,-4.79908 3.02349,2.31773 c 1.66293,1.27475 13.3735,11.3109 26.0235,22.30254 22.65327,19.68353 46.2867,42.94924 59.98936,59.05597 3.84415,4.51859 7.55665,8.21561 8.25,8.21561 1.83082,0 1.66488,-29.81388 -0.24713,-44.39951 -2.24636,-17.13622 -6.80164,-41.00714 -11.40381,-59.75914 C 192.83979,400.67909 191,392.96042 191,392.68875 191,391.7822 229.11444,381 232.31904,381 c 2.54307,0 7.73545,19.89196 13.14377,50.35362 4.69876,26.46519 6.52957,46.75123 6.53374,72.39638 0.003,18.3601 0.2105,21.25 1.52592,21.25 3.06694,0 23.84812,-35.52275 34.47789,-58.93554 C 293.69484,453.52198 307,420.00149 307,418.19752 c 0,-0.52395 0.66624,-1.50556 1.48053,-2.18136 1.65135,-1.3705 43.40887,-10.00998 43.96387,-9.09597 0.19363,0.3189 0.68133,3.72981 1.08377,7.57981 2.37245,22.69648 18.9407,72.86854 38.96697,118 15.04484,33.90525 17.19992,36.40132 16.18853,18.75 -1.55797,-27.19041 -9.56208,-64.07267 -22.69976,-104.59852 -2.69774,-8.32172 -4.58524,-15.43386 -4.19445,-15.80475 0.3908,-0.37089 7.68321,-3.82349 16.20536,-7.67245 18.10591,-8.1774 15.36506,-8.54238 30.51631,4.06368 13.62307,11.33461 37.60329,37.66059 54.50381,59.83542 4.99943,6.55964 9.72872,11.92662 10.50953,11.92662 0.87337,0 2.04445,-2.21263 3.0433,-5.75 13.16612,-46.62677 26.90982,-91.05584 28.75722,-92.96304 0.64626,-0.66717 8.0883,-3.31153 16.53789,-5.87637 17.47834,-5.30549 15.60414,-5.83016 20.05964,5.61558 10.67811,27.431 23.7273,74.51005 29.09625,104.97383 2.77546,15.74814 6.59179,52.66833 5.71581,55.29626 -0.37732,1.13197 -40.42133,11.68366 -41.23854,10.86645 C 555.22322,570.88989 555,567.74772 555,564.18012 c 0,-11.26491 -3.01148,-34.09974 -6.68374,-50.68012 -4.58188,-20.68733 -9.49664,-37.74993 -11.01572,-38.24336 -4.38564,-1.42455 -15.78819,37.65848 -20.78539,71.24336 -0.91127,6.1244 -2.05154,10.41347 -2.9422,11.06685 -1.85656,1.36197 -25.00952,6.78763 -26.64233,6.24336 -0.67531,-0.22511 -1.83281,-2.77319 -2.57221,-5.6624 C 481.0051,545.04479 472.12216,528.42763 457.81845,508.5 447.2051,493.7137 441.6049,487.5539 439.50711,488.3589 c -1.00581,0.38596 -1.43611,1.31316 -1.10739,2.38617 1.02914,3.35936 6.53141,34.81201 7.56235,43.2287 0.57086,4.66057 1.03793,11.26044 1.03793,14.66638 v 6.19263 l -15.25,3.63736 c -22.93415,5.47014 -22.75059,5.41108 -22.74488,7.3184 0.003,0.9413 1.11378,3.51146 2.46879,5.71146 1.35502,2.2 2.47772,4.3375 2.49488,4.75 0.0398,0.9563 0.38576,0.98238 -24.46879,-1.84427 z M 335.75,512.4018 c 1.88382,-0.28543 3.25,-1.08069 3.25,-1.89185 0,-0.76968 -2.77797,-8.86727 -6.17326,-17.99464 -4.51015,-12.12439 -6.57457,-16.51711 -7.66286,-16.30527 -1.7595,0.3425 -20.51223,35.4173 -19.66702,36.78488 0.55877,0.9041 23.31623,0.45794 30.25314,-0.59312 z m 403.0309,41.76787 c 0.59464,-20.59771 -0.30322,-32.41884 -2.42866,-31.97555 -0.80666,0.16823 -3.26358,4.35588 -5.45983,9.30588 -2.19626,4.95 -4.53301,9.48908 -5.1928,10.08685 -1.14014,1.03298 -13.62335,3.14677 -73.19961,12.39497 -14.3,2.21983 -30.20255,4.70884 -35.339,5.53113 -5.13645,0.82229 -9.74895,1.24171 -10.25,0.93205 -0.50105,-0.30967 -0.91377,-4.69898 -0.91715,-9.75402 -0.0125,-18.70737 -6.42755,-62.00033 -12.96167,-87.4742 -2.29719,-8.95577 -4.03168,-16.67636 -3.85444,-17.15687 0.17724,-0.4805 5.72226,-4.74171 12.32226,-9.46935 l 12,-8.59571 9,0.51061 c 7.34456,0.41669 76.21559,2.75228 81.5,2.76386 0.825,0.002 2.02948,0.41965 2.67661,0.92853 1.20237,0.94548 8.74709,23.71178 8.07935,24.37953 -0.20252,0.20251 -12.49295,-0.0798 -27.31209,-0.62726 -30.16003,-1.11429 -52.32115,-0.4335 -53.11362,1.63166 -0.70551,1.83851 2.65583,16.65958 4.13523,18.23338 1.02113,1.08629 7.74455,0.98636 38.63539,-0.57425 20.56952,-1.03917 37.53577,-1.79435 37.70277,-1.67818 0.49241,0.34253 -2.10143,21.30107 -2.77014,22.38307 -0.33633,0.54419 -14.76896,2.12733 -32.07251,3.51807 -17.30354,1.39074 -33.40724,2.78795 -35.78599,3.1049 l -4.32501,0.57627 0.68926,10.17748 c 0.3791,5.59761 1.09284,10.60998 1.58611,11.13858 0.57115,0.61207 7.15735,0.18289 18.13574,-1.18179 50.44502,-6.27061 74.3702,-9.60654 75.50823,-10.52824 1.48886,-1.20584 1.34723,-2.19343 -3.4779,-24.25107 -1.92501,-8.8 -6.41609,-24.9395 -9.98018,-35.86555 -3.56409,-10.92605 -6.10465,-20.20935 -5.6457,-20.62956 0.45895,-0.42021 7.58445,-2.90381 15.83445,-5.51909 l 15,-4.75507 13.5,2.22515 c 14.72409,2.42693 51.4071,10.7749 64.28429,14.62921 28.53421,8.54067 48.02049,18.69985 53.79759,28.04739 2.57948,4.17369 2.82515,9.71284 0.61991,13.9773 -3.06394,5.92501 -14.54528,11.60655 -32.33254,15.99975 -12.11187,2.99147 -14.00377,3.92099 -12.25914,6.02315 0.62413,0.75203 1.54517,1.36732 2.04676,1.36732 2.32476,0 25.98745,9.93366 41.10553,17.25621 12.33812,5.97605 17.05701,7.82438 17.87858,7.00281 1.75297,-1.75297 -2.42804,-29.07541 -7.54645,-49.31523 -2.42622,-9.59409 -6.67807,-23.95576 -9.44854,-31.91484 -2.77047,-7.95908 -4.87892,-14.62935 -4.68544,-14.82284 C 875.49768,431.16899 904.83785,422 907.11946,422 c 1.48185,0 9.86333,1.34221 18.6255,2.98269 44.43613,8.31947 82.72094,20.07979 99.16804,30.46242 2.3286,1.46995 4.7097,2.51399 5.2914,2.32008 0.5817,-0.1939 1.8854,-3.04883 2.897,-6.34429 2.6458,-8.61848 7.352,-13.62679 17.2399,-18.34626 9.7375,-4.64771 19.4975,-6.97618 33.5183,-7.99653 13.2286,-0.9627 25.8996,0.095 35.5859,2.97055 4.5628,1.35455 7.9972,1.90192 8.5298,1.35945 0.5247,-0.53445 -0.4793,-4.19987 -2.4401,-8.90811 -1.8325,-4.4 -3.1795,-8.25079 -2.9935,-8.55731 0.5903,-0.97279 39.4871,-16.24725 40.0191,-15.7152 0.2801,0.28003 1.8631,6.9809 3.5179,14.89082 1.6548,7.90993 5.1756,24.50669 7.8241,36.88169 2.6485,12.375 4.5136,22.84266 4.1448,23.26147 -0.5058,0.57445 -18.7846,4.95863 -29.3676,7.04385 -0.5434,0.10707 -2.5263,-2.50532 -4.4064,-5.80532 -4.1688,-7.31726 -6.3236,-9.68821 -12.2159,-13.44137 -8.5397,-5.43941 -16.1461,-7.30201 -30.0577,-7.36035 -13.5943,-0.057 -18.8386,1.26319 -20.9906,5.28412 -2.7115,5.06654 3.8672,9.11554 30.2494,18.61756 53.3931,19.23048 70.2215,27.02681 81.5737,37.79167 5.8639,5.56051 8.1675,10.31936 8.1675,16.87275 0,16.35137 -19.9177,27.59039 -54.3929,30.6924 -20.0079,1.80027 -47.237,-1.02018 -72.0241,-7.46041 l -9.9131,-2.57565 -13.8195,4.78964 c -12.8775,4.46316 -13.9868,4.6874 -16.2737,3.28964 -1.3498,-0.825 -7.889,-5.1815 -14.5314,-9.68111 C 995.78064,532.88199 965.10501,521 946.93462,521 c -4.98557,0 -5.93453,0.27985 -5.93404,1.75 3.2e-4,0.9625 0.47169,10.03113 1.04749,20.1525 0.57581,10.12138 0.68805,18.75967 0.24943,19.19621 -0.64596,0.64289 -22.7501,5.08069 -41.5475,8.34142 l -3.75,0.6505 v -7.5767 c 0,-5.37452 -0.38581,-7.72475 -1.32741,-8.08607 -0.73007,-0.28016 -4.49702,0.63396 -8.37098,2.03138 -3.87397,1.39742 -7.77537,2.54076 -8.66979,2.54076 -0.89441,0 -4.40562,-2.04609 -7.80269,-4.54687 -25.35787,-18.6674 -58.63116,-32.94534 -79.70588,-34.20268 l -9.42877,-0.56253 0.61487,3.90604 c 0.95699,6.07936 2.07683,38.40604 1.33044,38.40604 -0.36626,0 -10.60956,1.8 -22.76289,4 -12.15333,2.2 -22.20607,4 -22.33942,4 -0.13335,0 -0.0238,-7.57365 0.24342,-16.83033 z m 411.8513,-21.47948 c 4.5407,-2.34809 4.9858,-4.5337 1.6107,-7.90884 -2.1945,-2.19449 -11.2361,-5.89828 -39.7913,-16.30012 -36.8763,-13.43294 -55.6975,-21.59654 -64.6968,-28.06195 C 1045.1371,478.53867 1042.376,477 1041.619,477 c -0.757,0 -1.9611,1.41159 -2.6757,3.13686 -2.5785,6.22502 -15.4474,12.51319 -36.3249,17.74947 -12.42856,3.11722 -12.29389,3.70237 2.0713,8.99961 4.2957,1.58404 13.6171,5.44985 20.7143,8.59071 l 12.9039,5.71064 8.8151,-6.1087 8.8151,-6.10869 5.7809,4.38538 c 13.5533,10.28136 34.2843,17.93946 55.8898,20.64587 10.7532,1.34701 29.3079,0.61043 33.0234,-1.31096 z M 795.37456,494.98456 c 27.4875,-2.27728 42.47489,-9.17992 37.24907,-17.15553 -3.2564,-4.9699 -21.97971,-14.21162 -36.11776,-17.82753 -10.07567,-2.57692 -25.44405,-4.46332 -26.63771,-3.26966 -0.54253,0.54253 -0.30094,2.62437 0.6013,5.18161 0.82952,2.3511 2.66274,9.96988 4.07383,16.93063 1.41109,6.96076 2.98147,13.66842 3.48973,14.90592 1.06409,2.59084 1.01391,2.58727 17.34154,1.23456 z m 172.036,-1.49692 c 10.75294,-1.87516 18.93245,-4.92111 22.95064,-8.54655 3.0284,-2.73239 3.08503,-2.93004 1.61,-5.61953 -4.93834,-9.00434 -33.52937,-20.61061 -56.22201,-22.82281 -8.32976,-0.81204 -8.66207,-0.27966 -5.80783,9.30436 1.14541,3.84605 2.9958,11.42623 4.11199,16.84485 3.14671,15.27586 1.48978,13.74121 14.01477,12.98049 5.96325,-0.36218 14.66734,-1.32555 19.34244,-2.14081 z M 534.75,543.79167 C 531.64666,542.7102 531.26137,540.036 533.05111,532 c 2.17561,-9.7685 3.4212,-9.07705 5.10567,2.83426 1.28947,9.11806 0.79382,10.42125 -3.40678,8.95741 z M 453,431.45506 c -11.75395,-11.89261 -24.81507,-22.61609 -31.76611,-26.08072 -6.90186,-3.44012 -10.23248,-2.89396 -25.66186,4.20799 -13.69292,6.30268 -13.56922,6.32639 -16.07992,-3.08233 -5.96034,-22.33609 0.43126,-51.23336 16.8415,-76.14252 6.2641,-9.50831 6.14632,-10.58465 -1.58361,-14.47092 -8.65152,-4.3496 -21.78935,-13.9901 -26.78551,-19.65512 -5.35834,-6.07569 -8.93076,-13.15099 -9.63272,-19.07795 -1.03071,-8.70273 9.50565,-34.35652 20.8906,-50.86415 9.86127,-14.29837 28.26697,-28.94386 41.25759,-32.82882 15.57614,-4.65819 38.27327,-1.66497 60.4853,7.9766 11.72275,5.08849 18.04772,8.87124 27.20699,16.27159 7.97333,6.44215 7.85062,6.43729 23.32775,0.9246 14.49546,-5.16302 26.29052,-6.96505 41.5,-6.34031 13.25231,0.54436 19.94209,2.13613 36.5,8.68485 26.75382,10.58123 32.59884,11.26066 46.5,5.40514 4.675,-1.96922 10.3,-4.1707 12.5,-4.89216 2.2,-0.72146 5.575,-1.9775 7.5,-2.79119 5.84915,-2.47242 19.98333,-5.63762 29.5,-6.60622 15.75116,-1.60314 35.14361,1.8387 50.36227,8.93847 3.49925,1.63246 7.11806,2.96811 8.0418,2.96811 0.92373,0 3.68571,-2.06016 6.13772,-4.57814 5.5354,-5.6843 19.67159,-15.26034 29.24149,-19.80855 3.9692,-1.88641 11.26672,-4.48329 16.21672,-5.77084 7.91337,-2.05835 10.93178,-2.31002 25,-2.0844 13.14935,0.21088 17.15807,0.63639 22.5,2.38824 16.91551,5.54735 29.30824,15.12428 38.42271,29.69254 1.49301,2.38637 6.95703,13.41137 12.14228,24.5 8.76237,18.7383 9.42798,20.60505 9.43137,26.45099 0.005,8.96974 -2.33866,12.84388 -15.86109,26.21672 -8.95732,8.85823 -13.24638,12.31249 -18.63527,15.00818 -4.98244,2.49238 -7.08811,4.11733 -7.30571,5.63783 -0.18586,1.29872 2.46468,6.55841 6.76087,13.41618 8.80989,14.06275 13.42117,27.98573 15.61156,47.13653 0.62894,5.49887 -0.97604,21.03015 -2.6278,25.42899 -0.63487,1.69074 -4.08876,3.22342 -16.62017,7.37528 -8.70031,2.88255 -17.02893,5.85706 -18.50805,6.61002 -3.4746,1.76878 -5.8107,5.15061 -5.8107,8.41181 0,1.4225 -0.59512,3.40023 -1.32249,4.39497 -1.23324,1.68656 -1.5305,1.70103 -4.40534,0.21439 -1.69558,-0.87681 -9.31296,-3.4586 -16.92752,-5.73729 -7.61456,-2.2787 -14.37999,-4.57173 -15.0343,-5.09563 -0.84586,-0.67727 -1.06786,-4.4718 -0.76821,-13.13018 0.2318,-6.6977 0.42965,-13.00264 0.43966,-14.01097 0.0282,-2.84422 1.70661,-1.62365 5.27108,3.83333 3.36129,5.14592 7.15442,6.99472 8.89911,4.33749 0.483,-0.73562 0.59943,-4.09897 0.25874,-7.47412 -1.21245,-12.01135 1.80032,-16.09906 5.79915,-7.86827 2.39564,4.93095 4.60871,6.20754 7.80021,4.4995 2.90593,-1.55521 3.83119,-4.62236 3.2413,-10.7446 -0.4654,-4.83024 -0.33761,-5.25 1.59833,-5.25 1.15729,0 2.8413,1.125 3.74224,2.5 2.28363,3.48526 4.38404,3.13299 8.90102,-1.49281 3.36882,-3.44998 3.86674,-4.53761 3.66244,-8 -0.20549,-3.48274 0.0392,-4.00719 1.86981,-4.00719 3.23209,0 5.59255,1.64254 6.7712,4.71178 1.64946,4.29525 3.96967,17.84015 4.7084,27.48672 1.35841,17.7385 7.46415,12.64917 7.43643,-6.1985 -0.024,-16.30941 -5.05121,-34.33885 -14.14072,-50.71375 C 869.02325,326.47381 862.02831,317.19863 847.75,302.43972 840.53818,294.98515 835,288.4374 835,287.36547 c 0,-1.0423 0.9,-3.57429 2,-5.62665 3.19573,-5.96255 2.74475,-7.73882 -1.96482,-7.73882 -5.4462,0 -7.17725,-2.964 -4.13456,-7.07945 2.5016,-3.38359 2.50075,-3.37632 0.61337,-5.2637 -1.30018,-1.30018 -2.23927,-1.31028 -7.50982,-0.0807 -3.3131,0.77289 -7.64935,2.08445 -9.63612,2.91457 -5.50579,2.30047 -7.07554,1.89 -10.48111,-2.74068 -7.19608,-9.78476 -7.24328,-13.91287 -0.24805,-21.69325 11.04907,-12.28923 32.78612,-16.35384 47.60888,-8.90239 6.5292,3.28224 14.45552,12.35463 19.0052,21.75317 3.50804,7.24675 4.22098,9.78213 4.55215,16.18847 0.44439,8.59666 -1.20786,13.11054 -6.71354,18.34109 -3.78488,3.59575 -4.19789,7.56291 -0.78736,7.56291 1.26732,0 4.43295,-1.35 7.03473,-3 2.60178,-1.65 5.71035,-3 6.90793,-3 1.21415,0 4.08439,1.87155 6.48802,4.23054 5.14982,5.05416 6.16155,4.75046 11.04284,-3.3148 4.58135,-7.56966 5.48315,-11.83948 5.04844,-23.90324 -0.35818,-9.93999 -0.62471,-11.0571 -4.89392,-20.5125 -15.3557,-34.00965 -35.27049,-47.47331 -65.64968,-44.38336 -23.06748,2.34624 -43.66946,13.56727 -58.59326,31.91328 -2.22363,2.73355 -4.83115,4.97008 -5.79447,4.97008 -0.96333,0 -4.37126,-1.55637 -7.57318,-3.4586 -7.54243,-4.48088 -17.95234,-8.36449 -27.15964,-10.13241 -8.5721,-1.64596 -25.56473,-1.84706 -33.27554,-0.3938 -9.48259,1.78719 -19.34791,7.23934 -27.06782,14.95924 -9.63898,9.63898 -9.30728,10.44595 4.44319,10.8094 C 686.41823,249.99942 689,250.3892 689,251.405 c 0,0.84398 -1.78721,1.57442 -4.84456,1.97999 -8.40556,1.11504 -25.30388,7.41889 -33.8407,12.62413 C 645.81285,268.7541 641.20139,271 640.06705,271 c -1.13433,0 -4.26303,-1.58098 -6.95266,-3.51328 -9.71649,-6.98061 -24.2308,-12.5621 -37.47069,-14.40937 -7.71115,-1.07589 -8.41979,-1.43729 -6.75398,-3.44447 2.02354,-2.43822 9.45875,-2.91917 16.14141,-1.04411 6.79284,1.90598 8.63615,1.20604 7.60836,-2.88901 -0.87298,-3.47823 -12.37749,-13.89613 -20.13833,-18.23623 -6.34008,-3.54558 -7.01839,-3.69717 -18.82516,-4.20707 -16.58516,-0.71626 -29.06153,0.88551 -41.28751,5.30065 -5.43867,1.96406 -11.85767,4.66719 -14.26444,6.00695 -6.7173,3.73928 -9.05303,3.2987 -13.40323,-2.52822 -11.58945,-15.52361 -34.92483,-28.6712 -55.92444,-31.50888 -7.45884,-1.00791 -23.09836,1.99348 -31.46926,6.03928 -16.09104,7.77709 -25.37681,17.64888 -34.92005,37.12387 -5.21996,10.65241 -5.51239,11.66529 -6.08592,21.0794 -0.74324,12.19967 0.55437,18.18063 5.65736,26.07594 5.59859,8.66212 8.32203,8.92032 13.00756,1.23321 3.12579,-5.12819 5.46841,-5.24518 11.58221,-0.5784 2.52207,1.92514 5.72427,3.78604 7.11599,4.13534 3.6002,0.9036 4.6968,-1.38944 2.19478,-4.58938 -11.13463,-14.24061 -12.4938,-23.46293 -5.61841,-38.12241 8.2064,-17.49738 25.97578,-28.00247 42.56086,-25.16156 8.48567,1.45353 18.27126,6.35689 24.31816,12.18533 4.53119,4.36749 4.86034,5.02073 4.86034,9.64608 0,5.08183 -1.14226,7.55713 -5.84045,12.65634 -3.02204,3.27998 -4.91637,3.37863 -14.40211,0.75 -8.69175,-2.40861 -11.35003,-2.50408 -12.14357,-0.43615 -0.33005,0.86011 0.39171,3.28715 1.60392,5.39341 1.89462,3.29197 2.01166,4.06134 0.83377,5.48061 -0.93448,1.12598 -2.22295,1.46376 -4.05156,1.06213 -4.08906,-0.89811 -5.87185,1.75406 -3.67687,5.46987 3.41876,5.78751 2.4276,8.45525 -6.45334,17.36947 C 405.38402,329.94677 391,357.99727 391,388.74084 391,400.29587 392.48975,407 395.05744,407 c 1.97602,0 2.32917,-1.64049 3.49202,-16.22116 0.33867,-4.24664 1.37698,-10.99664 2.30735,-15 L 402.54838,368.5 h 3.97581 c 4.14028,0 4.02124,-0.15875 4.36951,5.82692 0.0585,1.00481 1.42168,3.14231 3.02938,4.75 3.54386,3.54387 8.43455,3.99187 10.07692,0.92308 0.5887,-1.1 1.72953,-2 2.53518,-2 1.12367,0 1.46482,1.39738 1.46482,6 0,4.72633 0.43761,6.43761 2.06149,8.06149 3.27273,3.27273 5.99491,2.12044 9.40737,-3.9821 5.07031,-9.06729 5.95082,-8.18973 5.15409,5.13677 -0.56975,9.52981 -0.43398,11.69578 0.79714,12.71752 2.49148,2.06775 4.91577,0.77383 8.33047,-4.44622 1.79439,-2.7431 3.70959,-5.13746 4.25599,-5.32079 0.62035,-0.20815 0.99345,4.06428 0.99345,11.37621 0,8.34339 0.59635,14.24969 2.07448,20.5457 3.3482,14.26147 2.88454,14.45478 -8.07448,3.36648 z M 1030.2425,428.75 c -0.5514,-0.6875 -1.3102,-4.85 -1.6863,-9.25 -0.6283,-7.34993 -2.75,-25.0756 -4.1807,-34.9271 -1.8298,-12.59997 -11.4452,-44.85897 -19.0368,-63.86731 C 994.08481,292.52742 980.94828,268.68605 964.17612,246 915.29232,179.87971 849.29144,132.95165 768.5,106.87003 744.58768,99.150501 714.67476,92.714821 687,89.335536 c -17.91176,-2.187154 -70.11621,-2.485473 -88,-0.50287 -29.20838,3.23805 -65.43708,10.959494 -90,19.181754 -90.76569,30.38316 -163.9454,88.21096 -210.4471,166.29872 -19.15942,32.17338 -32.90289,68.83507 -41.4897,110.67678 -1.98198,9.65774 -2.94704,12.56302 -4.25596,12.8123 -1.8149,0.34564 -2.90149,-2.50554 -6.32869,-16.60635 -1.37967,-5.67645 -2.43458,-7.82253 -4.8402,-9.84672 -2.77833,-2.33781 -3.63437,-2.52996 -8.84502,-1.98534 -5.30089,0.55406 -5.89514,0.41044 -7.32381,-1.76998 -1.43736,-2.1937 -1.32779,-3.26892 1.45054,-14.23339 4.58886,-18.10959 11.5727,-40.31338 16.08116,-51.12694 6.15293,-14.75787 23.1383,-46.03361 33.5265,-61.7335 19.93596,-30.12961 50.47837,-63.99108 78.3325,-86.84495 5.46662,-4.48528 11.89691,-9.79226 14.28954,-11.79329 10.62456,-8.88564 48.76975,-32.42031 66.35024,-40.93651 33.81748,-16.381582 44.3157,-20.606787 69.45476,-27.953344 16.6649,-4.870098 54.80785,-13.170521 74.54524,-16.222055 l 21,-3.246741 39.5,0.04977 c 35.0491,0.04416 41.24656,0.296018 55,2.235134 28.65694,4.04038 54.62227,9.750823 87.99995,19.353451 C 812.90922,83.746241 853.37576,102.83023 884,122.773 c 29.73514,19.36378 44.78101,31.43227 69.65548,55.87162 26.97033,26.49854 50.02042,56.85397 66.56492,87.66149 3.8971,7.25664 7.6615,13.87096 8.3655,14.69849 2.2778,2.67761 10.9673,24.08808 16.2322,39.9954 6.5952,19.92633 16.9665,58.90958 18.7563,70.5 1.5014,9.72295 1.8451,22.29507 0.6603,24.15057 -0.4041,0.63281 -3.4347,1.92637 -6.7347,2.87458 -7.4556,2.14225 -17.7122,6.71004 -21.1645,9.42556 -2.9932,2.35448 -4.6695,2.57438 -6.093,0.79929 z m -440.54629,-3.38712 c -0.35042,-0.35042 0.22702,-1.85069 1.28319,-3.33395 3.24903,-4.56285 19.35433,-12.12151 28.5206,-13.38552 2.2,-0.30337 8.68179,-1.24591 14.40399,-2.09454 9.77127,-1.44911 19.85576,-1.05145 23.02622,0.908 0.50331,0.31106 3.27949,1.01396 6.16929,1.562 7.69153,1.45867 16.57275,5.70888 15.0698,7.21183 -0.90798,0.90798 -2.22321,0.90223 -5.68949,-0.0249 -2.47968,-0.66317 -5.34695,-1.2058 -6.37172,-1.2058 -1.02476,0 -2.43675,-0.69109 -3.13776,-1.53575 -1.09278,-1.31672 -4.426,-1.48496 -23.37244,-1.17966 -25.86608,0.4168 -29.11213,1.12325 -39.81759,8.66565 -6.99756,4.93005 -8.78467,5.71206 -10.08409,4.41264 z M 713.6454,404.31926 C 707.25326,391.47779 699.91131,379.97889 691.73286,370 c -8.36196,-10.2028 -11.96573,-8.21979 -7.80175,4.29299 2.87669,8.64447 7.90843,32.60462 7.3198,34.85552 -0.58377,2.23237 -2.53273,2.35477 -6.09662,0.38288 -1.45986,-0.80773 -4.30766,-2.12051 -6.32845,-2.91728 -2.95175,-1.16384 -4.22978,-2.59551 -6.5,-7.2814 -3.19869,-6.60229 -5.91916,-8.05162 -6.84967,-3.64915 -1.06968,5.06088 -1.93553,5.80174 -7.14354,6.11226 -7.94359,0.47364 -9.77318,-0.70401 -11.59298,-7.46203 -0.86401,-3.20858 -1.87508,-8.49184 -2.24683,-11.74056 C 643.60435,374.82882 643.21542,374 640.4604,374 c -2.6767,0 -2.71773,0.10797 -4.9718,13.08356 -0.91566,5.27095 -2.00418,10.13263 -2.41894,10.80373 -0.41476,0.67109 -3.30237,1.88562 -6.41691,2.69894 -7.16519,1.87109 -9.65275,0.84054 -9.65275,-3.99897 0,-1.8383 -0.60669,-3.84588 -1.34821,-4.46128 -1.66882,-1.38501 -3.23744,0.27009 -7.08362,7.47417 -2.19858,4.11805 -3.85276,5.70669 -8.59038,8.25 C 596.75068,409.58257 593.45865,411 592.66215,411 590.91915,411 590,408.87997 590,404.85972 c 0,-3.65463 5.02303,-23.71824 8.44535,-33.73349 2.64699,-7.74628 2.58998,-9.12623 -0.37701,-9.12623 -3.32359,0 -9.94754,8.35446 -22.72492,28.66182 -1.0483,1.66609 -1.30576,1.4901 -2.75,-1.8797 -2.1381,-4.98876 -2.00884,-7.30122 0.60579,-10.83769 2.03564,-2.75335 2.07759,-3.0962 0.56405,-4.60974 -1.44512,-1.44512 -2.32767,-1.4882 -7.59363,-0.37069 -10.82016,2.2962 -37.08321,-0.0984 -55.16963,-5.03025 -18.59715,-5.07111 -24.08768,-7.12317 -22.89712,-8.55771 C 488.75402,358.59147 491.1265,358 493.62244,358 497.15702,358 498,357.65638 498,356.21561 c 0,-0.98142 -1.4625,-2.6209 -3.25,-3.6433 -6.61357,-3.78278 -13.6137,-9.77435 -18.11804,-15.50766 C 474.08438,333.82199 472,330.68429 472,330.09199 c 0,-0.65211 1.87372,-0.98128 4.75,-0.83446 l 4.75,0.24247 0.31492,-3.82644 c 0.42622,-5.17874 -1.39156,-7.57754 -9.20476,-12.14687 C 464.9297,309.03499 455,299.74514 455,297.0513 c 0,-2.62825 12.74735,-14.15174 23.99237,-21.68889 14.42085,-9.6658 15.45149,-8.46775 5.50763,6.40225 -7.98388,11.93905 -8.15348,13.66638 -1.86932,19.03791 11.57872,9.89719 66.69668,37.95043 89.80397,45.7073 8.541,2.86711 17.28431,3.24083 23.82985,1.01857 2.38391,-0.80936 7.60433,-2.15942 11.60092,-3.00013 11.60276,-2.44072 11.49773,-2.3258 10.68124,-11.68582 -0.77055,-8.8334 -2.71066,-15.26242 -7.42272,-24.59697 -4.02458,-7.97265 -2.38579,-8.1354 4.98964,-0.49552 8.07307,8.36253 11.58259,13.26073 16.88549,23.5669 3.93676,7.65109 5.1593,9.23533 7.3281,9.49616 2.15225,0.25884 2.70772,-0.17414 3.20731,-2.5 2.17614,-10.13123 7.81344,-18.75258 19.34936,-29.59172 7.43608,-6.98694 10.72635,-8.07534 7.23156,-2.39216 -3.65479,5.94339 -6.20495,14.15802 -7.17127,23.10034 -0.53072,4.91124 -0.72662,9.68045 -0.43532,10.59824 0.65874,2.07551 4.67407,3.97224 8.40912,3.97224 1.5531,0 7.43016,1.32569 13.06012,2.94599 l 10.23631,2.94599 11.14282,-2.84626 c 16.83285,-4.29969 33.59475,-10.61666 49.14282,-18.52021 21.70256,-11.03207 46.46554,-27.85557 49.58734,-33.68871 1.51722,-2.83495 -3.57915,-11.00106 -13.33734,-21.37097 -4.2625,-4.52971 -7.75,-8.51258 -7.75,-8.85083 0,-4.42219 25.69231,13.2287 38.87999,26.71097 l 5.37999,5.50017 -2.23341,3.13654 c -2.66453,3.74199 -11.53286,11.24772 -18.74389,15.86392 -2.85809,1.82964 -5.40732,4.07964 -5.66495,5 -2.33542,8.34318 -1.35357,11.26708 3.20561,9.54618 1.82743,-0.68978 3.52359,-0.75813 4.5506,-0.18339 1.42253,0.79609 1.14468,1.5098 -2.11833,5.44137 -2.06559,2.4888 -7.91811,7.70454 -13.00561,11.59053 -10.89353,8.3208 -11.91464,10.77012 -4.5,10.79402 5.12324,0.0165 7.88915,1.14151 6.86814,2.79353 -1.16052,1.87777 -22.42058,8.32209 -34.36886,10.41785 -7.75888,1.36093 -18.54187,2.26675 -31.74928,2.66708 -19.53606,0.59217 -20.00716,0.65651 -20.30873,2.77364 -0.19172,1.34601 1.42836,4.52708 4.27484,8.39376 C 719.06176,392.66231 729,410.03529 729,412.21585 729,413.76855 724.33009,416 721.08065,416 c -1.07017,0 -3.59642,-3.96873 -7.43525,-11.68074 z M 548.64235,352.85984 c 4.85603,-1.22276 6.48219,-3.24294 4.24439,-5.27282 C 552.12403,346.89518 541.6,343.03771 529.5,339.01487 517.4,334.99203 506.22188,331.06041 504.65974,330.27795 501.19287,328.54143 499,329.22747 499,332.04862 c 0,2.67477 9.89147,12.59294 16.21854,16.26231 8.41187,4.87844 23.79866,6.97255 33.42381,4.54891 z m 206.00746,-0.25477 c 9.56517,-2.54682 21.02882,-10.6218 26.14294,-18.41505 1.36099,-2.07396 1.35335,-2.47249 -0.0747,-3.90056 -1.45411,-1.4541 -2.03564,-1.39912 -6.77766,0.64084 -6.18053,2.65879 -24.03779,8.84567 -36.09368,12.50511 -9.59161,2.91144 -12.0913,4.74856 -9.70631,7.13355 3.17921,3.17921 17.95416,4.31404 26.50942,2.03611 z"
       id="path2" />
  </g>
</svg>
