<svg xmlns="http://www.w3.org/2000/svg" width="1280" height="900"><path d="M749.763 832.489c-7.515-4.226-8.067-18.66-1.021-26.702 1.358-1.55 1.205-1.96-1.62-4.339-6.103-5.134-3.38-13.955 5.774-18.704 2.855-1.481 4.94-2.287 4.633-1.79-.307.496.349 1.19 1.458 1.542 4.452 1.413 5.066 8.335.934 10.546-3.163 1.693-6.921-1.174-6.921-5.28 0-3.003-.1-3.09-1.7-1.49-2.462 2.461-2.179 8.164.55 11.068l2.249 2.394 3.662-1.867c4.369-2.228 7.239-2.402 7.239-.44 0 2.092-4.68 5.422-8.674 6.172-4.102.77-5.803 4.047-4.819 9.291.792 4.22 5.506 9.11 8.781 9.11 5.688 0 9.907-6.933 6.128-10.07-2.08-1.726-4.946.022-4.837 2.951.11 2.912-1.375 2.66-2.803-.474-.952-2.09-.89-3.11.325-5.25 1.441-2.542 1.865-2.657 9.827-2.657 7.887 0 8.428-.142 10.37-2.721 1.723-2.288 1.866-3.124.897-5.25-.688-1.51-1.98-2.529-3.205-2.529-2.45 0-3.657 2.491-2.11 4.355 1.214 1.463.523 2.645-1.547 2.645-2.043 0-5.333-3.749-5.333-6.077 0-2.721 5.252-7.923 8-7.923 1.185 0 3.47 1.315 5.077 2.923 3.824 3.825 3.956 8.696.35 12.981-2.571 3.056-9.496 5.79-11.51 4.544-.698-.43-.833 1.276-.414 5.206.527 4.931.263 6.54-1.689 10.287-1.273 2.443-3.478 5.289-4.9 6.324-3.53 2.567-9.735 3.145-13.151 1.224zm10.655-32.096c.87-.334 1.582-1.009 1.582-1.5 0-1.43-2.641-1.03-4 .607-1.32 1.59-.34 1.952 2.418.893zm-.048-14.17c-1.308-2.079-4.37-2.866-4.37-1.125 0 .684.754 2.078 1.676 3.097 2.134 2.357 4.384.71 2.694-1.973zm-79.366 41.282c-2.062-2.485 1.258-6.11 9.268-10.12 8.492-4.252 7.312-3.342 8.243-6.36.737-2.39.636-2.365-2.91.75-2.74 2.405-4.627 3.225-7.417 3.225-4.153 0-8.188-2.288-8.188-4.643 0-1.126-1.108-.715-4.197 1.556-4.727 3.476-10.598 4.149-13.232 1.516-2.064-2.065-2.006-2.508.878-6.759 3.337-4.917 3.587-7.094.86-7.482-3.555-.506-6.94 2.521-10.484 9.374-3.297 6.376-3.361 6.43-7.575 6.434-4.79.004-4.806-.02-2.764-3.968l1.485-2.874-5.086 3.423c-6.628 4.46-13.885 4.626-13.885.316 0-2.415-.177-2.391-4.595.607-2.47 1.676-5.056 2.5-7.845 2.5-4.726 0-6.56-1.338-6.56-4.787v-2.386l-4.197 3.086c-4.727 3.476-10.598 4.149-13.232 1.516-2.064-2.065-2.006-2.508.878-6.759 3.337-4.917 3.587-7.094.86-7.482-3.555-.506-6.94 2.521-10.484 9.374-3.297 6.376-3.361 6.43-7.575 6.434-4.622.004-4.775-.147-3.166-3.153.987-1.844.687-1.793-3.338.566-6.622 3.88-12.18 3.395-12.895-1.126-.349-2.203-.379-2.198-4.751.75-3.156 2.127-5.597 2.967-8.628 2.967-8.353 0-8.473-5.873-.245-11.963 2.574-1.905 4.588-3.541 4.476-3.636-.907-.767-11.994 2.545-13.755 4.11l-2.239 1.989 1.238-2.357c.896-1.705.936-2.66.146-3.45-1.635-1.635-1.352-2.477 1.45-4.313 2.422-1.587 2.637-1.564 4.559.499 1.816 1.949 2.665 2.098 8.525 1.498l6.51-.667-3.069 3.068c-3.83 3.83-4.025 6.944-.491 7.83 3.731.937 7.36-1.425 9.75-6.346 1.96-4.034 2.301-4.262 6.372-4.262 4.703 0 4.915.302 2.801 4-2.26 3.953-1.921 7 .777 7 3.358 0 6.12-2.336 8.19-6.927 1.75-3.88 2.048-4.073 6.292-4.073 3.556 0 4.338.304 3.877 1.505-.458 1.195.234 1.092 3.353-.5 4.689-2.392 10.27-2.603 12.05-.457 1.057 1.272.987 2.175-.393 5.069-1.914 4.014-1.484 5.383 1.69 5.383 2.986 0 6.347-2.486 8.195-6.06 1.374-2.656 1.367-2.94-.064-2.94-3.018 0-.495-1.74 3.433-2.368 2.17-.347 5.283-1.756 6.917-3.131 3.887-3.27 4.573-3.157 2.709.45-1.955 3.78-1.947 3.829.724 4.343 1.918.37 1.842.454-.516.57-2.099.103-3.159.959-4.392 3.545-1.954 4.098-1.234 6.591 1.904 6.591 3.388 0 6.145-2.323 8.221-6.927 1.74-3.858 2.066-4.073 6.185-4.073 4.751 0 4.964.299 2.848 4-.786 1.375-1.445 3.512-1.465 4.75-.082 5.235 9.272.752 11.957-5.73 1.129-2.725 1.688-3.02 5.736-3.02 3.584 0 4.37.303 3.908 1.505-.458 1.195.234 1.092 3.354-.5 4.688-2.392 10.269-2.603 12.05-.457 1.056 1.272.986 2.175-.394 5.069-1.964 4.118-1.488 5.383 2.029 5.383 1.681 0 3.8-1.332 6.19-3.893 4.646-4.975 9.505-7.404 14.6-7.296 2.22.047 6.868.08 10.33.073l6.295-.012-3.61 7.166c-1.984 3.942-3.348 7.427-3.03 7.746.318.318 3.385-1.348 6.814-3.702 5.227-3.587 5.784-3.802 3.444-1.332-1.536 1.621-4.995 3.98-7.688 5.24-3.177 1.488-5.291 3.25-6.024 5.02-3.417 8.249-18.058 15.235-21.992 10.495zm13.103-4.568c.95-1.34 2.037-3.503 2.416-4.806l.687-2.368-3.194 1.868c-3.66 2.142-5.429 4.85-4.593 7.03.754 1.965 2.531 1.31 4.684-1.724zm5.438-17.392c3.796-3.795 2.934-8.545-1.55-8.545-.463 0-2.226 1.165-3.918 2.589-2.861 2.407-4.02 6.134-2.41 7.744 1.462 1.462 5.558.533 7.878-1.788zm113.528 16.82c-2.867-3.645-2.664-9.265.566-15.639 2.425-4.786 2.706-5.024 3.476-2.945 2.23 6.027 8.492 1.65 11.334-7.921 1.62-5.453 2.26-28.86.79-28.86-.42 0-2.964 1.463-5.655 3.25l-4.894 3.25-.322 6.803c-.356 7.523-2.788 14.026-6.482 17.332-3.52 3.15-6.374 3.734-8.39 1.718-3.792-3.792.31-16.867 8.568-27.315 2.7-3.417 3.7-5.5 3.235-6.741-.578-1.542-.447-1.613.925-.498 1.101.895 1.804.965 2.26.226.365-.59 4.568-3.712 9.34-6.938 8.557-5.785 12.852-9.672 15.012-13.587l1.103-2 .02 2c.034 3.197-4.455 11.936-8.337 16.234l-3.573 3.954 1.975 10.192c2.421 12.487 2.618 28.044.435 34.244-2.224 6.316-5.922 11.206-10.359 13.7-5.203 2.924-8.473 2.788-11.027-.459zm-3.282-29.931c4.346-3.045 9.11-16.434 5.847-16.434-2.163 0-10.393 9.606-11.138 13.002-1.092 4.972 1.08 6.381 5.29 3.432zm-344.07 21.194c-2.628-.733-5.912-2.398-7.297-3.7-5.12-4.809-1.256-11.47 7.321-12.62 3.494-.47 4.05-.291 3.914 1.254-.24 2.72 4.27 4.862 8.547 4.06 4.992-.937 8.06-3.638 14.385-12.665 3.005-4.29 7.018-9.163 8.918-10.83 2.07-1.818 3.025-3.297 2.384-3.693-.587-.363-5.416-.651-10.73-.64-10.273.02-16.789 1.63-18.605 4.595-2.42 3.953 6.535 6.165 12.492 3.085 2.674-1.383 2.95-1.376 2.95.077 0 2.544-5.296 7.16-9.579 8.35-5.504 1.527-8.287 1.343-13.171-.874-3.815-1.732-4.25-2.285-4.25-5.406 0-4.353 3.117-7.018 10.83-9.26 5.476-1.592 19.862-2.282 29.67-1.423 2.75.24 5.9.085 7-.345 1.538-.601 1.66-.541.529.258-1.756 1.242-1.75 1.247 4.014 3.976 13.756 6.513 15.948 19.944 3.79 23.218-11.18 3.01-23.286-5.426-15.297-10.66 2.376-1.558 2.746-1.548 5.905.153 3.185 1.716 3.513 1.722 5.965.116 3.58-2.346 3.404-6.095-.457-9.702-1.678-1.567-4.021-3.158-5.207-3.534-3.184-1.01-7.051 4.2-11.348 15.289-1.973 5.093-4.854 11.009-6.401 13.144-5.118 7.065-16.622 10.47-26.272 7.777zm-37.645-19.56c-.99-.627-.409-.85 1.914-.734 3.243.161 3.34.051 3.424-3.834.084-3.888.184-4 3.586-4 3.195 0 3.527.274 3.806 3.154.23 2.364-.265 3.554-1.972 4.75-2.478 1.735-8.48 2.106-10.758.664zm205.453-2.423c-3.021-2.21-1.254-4.645 3.368-4.645 4.69 0 7.837 2.41 6.015 4.606-1.477 1.78-6.972 1.802-9.383.039zm-72-1c-3.021-2.21-1.254-4.645 3.368-4.645 4.69 0 7.837 2.41 6.015 4.606-1.477 1.78-6.972 1.802-9.383.039zM845 776.912c0-3.454.853-4.764 8.143-12.504l8.144-8.645-.527 4.677c-.473 4.193-1.317 5.489-8.144 12.504L845 780.77Zm-423.593 1.681C411.673 776.23 406 771.101 406 764.664c0-3.308-.137-3.425-4.75-4.04-7.913-1.055-14.549-6.725-11.472-9.802 1.206-1.206 7.685-2.76 11.722-2.813 1.65-.022 3.675-.492 4.5-1.045 1.275-.854 1.125-1.32-1-3.104-2.268-1.905-3.29-2.04-11-1.45-4.675.357-10.3.889-12.5 1.182-3.413.455-4.514.094-7.5-2.456l-3.5-2.989 4.25-.701c2.337-.386 4.25-1.004 4.25-1.374 0-1.516-13.241-3.454-24-3.51-10.715-.058-11.91-.267-17.5-3.062-4.933-2.467-6-3.444-6-5.5 0-2.28.426-2.527 4.842-2.809 3.074-.195 8.3.673 14.308 2.377 7.353 2.086 9.955 2.45 11.658 1.627 1.948-.942 1.747-1.07-1.808-1.15-5.313-.118-12.23-3.358-13.602-6.37-1.219-2.674.167-6.6 2.387-6.765.668-.05-2.125-.695-6.208-1.434-7.905-1.43-12.39-3.926-12.875-7.164-.462-3.079 1.804-4.23 12.349-6.272l9.761-1.89 3.76 3.155 3.759 3.156-6.088 1.242c-7.284 1.486-8.818 2.65-6.517 4.952 1.139 1.138 4.43 1.871 10.765 2.396 10.78.893 19.647 4.632 21.814 9.199.717 1.513 1.8 2.75 2.405 2.75 1.306 0 8.094 5.03 7.538 5.585-.211.211-3.953 1.084-8.316 1.94-14.063 2.759-13.502 2.502-8.991 4.103 5.88 2.088 13.39 2.694 19.498 1.574 5.28-.969 5.548-.906 9.193 2.15 3.03 2.54 3.436 3.261 2.105 3.734-1.124.398-.088 1.118 3.246 2.254 9.456 3.221 12.46 8.748 5.767 10.607-2.063.573-4.286 1.044-4.941 1.047-1.889.01-2.593 1.96-1.278 3.543.852 1.027 2.31 1.272 4.997.842 2.767-.442 4.835-.06 7.634 1.408 2.11 1.108 6.809 2.766 10.44 3.685 7.012 1.774 12.898 4.783 12.898 6.593 0 .682-1.07.859-2.84.47-2.346-.515-3.564.036-7.003 3.17l-4.162 3.795 5.252 1.138 5.253 1.138-6 .027c-3.3.015-8.292-.53-11.093-1.21zm7.635-9.343c3.275-.962 5.956-2.028 5.957-2.368 0-.34-2.783-1.4-6.186-2.354-5.666-1.59-6.286-1.601-7.36-.132-.646.882-2.136 1.604-3.313 1.604-2.764 0-2.729 1.474.082 3.443 2.798 1.96 3.539 1.947 10.82-.193zM352.5 728.599l4-1.248-4.707-1.045c-6.836-1.518-12.052-.153-10.293 2.694.823 1.332 6.056 1.14 11-.401zm24.94-7.55c3.25-2.697-1.624-6.049-8.796-6.049-7.512 0-10.004 4.527-3.808 6.92 3.27 1.262 10.648.753 12.604-.87zm493.8 45.41C860.995 762.15 869.337 740 881.204 740c4.28 0 5.796 1.504 5.796 5.75 0 4.229-2.168 8.475-5.414 10.601-3.225 2.114-3.172 2.132-3.125-1.074.047-3.307-2.747-4.233-5.436-1.8-2.324 2.103-2.947 4.502-1.903 7.325 2.71 7.325 15.372 2.699 19.988-7.302 3.341-7.24 2.685-9.648-4.86-17.84l-6.75-7.328-3 2.216c-7.207 5.324-14.694 7.196-17.954 4.49-2.261-1.877-1.959-8.243.542-11.423 2.434-3.094 6.901-5.615 9.951-5.615 2.087 0 2.077.074-.45 3.077-5.659 6.725-.48 11.926 7.298 7.33 2.544-1.502 2.674-1.94 2.314-7.75-.505-8.139 2.504-16.27 8.235-22.251 9.949-10.383 14.16-.455 6.063 14.292l-3.404 6.198 3.556 2.197c5.272 3.259 7.341 7.316 7.344 14.407.008 16.784-17.538 35.675-28.755 30.959zm17.507-50.709c5.241-6.603 1.88-18.342-3.784-13.216-2.386 2.159-2.584 7.365-.437 11.516 1.66 3.212 2.692 3.627 4.221 1.7zm-233.502 50c-.55-.688-1.31-2.263-1.69-3.5-.816-2.662-2.233-2.852-4.689-.629-3.21 2.905-4.51 1.112-5.212-7.181-.36-4.258-.654-12.587-.654-18.51 0-5.921-.273-11.478-.607-12.348-.724-1.888-3.013-2.09-3.752-.332-.376.895-.84.753-1.633-.5-2.323-3.67-4.002-2.045-4.133 4l-.125 5.75-.753-5.149c-1.19-8.128-3.117-9.673-5.374-4.307l-1.28 3.045-1.22-4.072c-.79-2.638-3.851-6.967-8.69-12.288-8.908-9.795-9.964-12.299-14.879-35.275-4.144-19.371-6.298-23.88-13.913-29.114-4.695-3.227-5.203-3.343-15-3.426-7.747-.066-9.433-.302-7.141-1 1.65-.503 7.564-.87 13.143-.816 9.804.095 10.453-.039 19.376-4 10.836-4.81 15.22-5.131 22.666-1.664 6.007 2.797 7.473 5.119 9.372 14.852.728 3.732 1.881 7.248 2.562 7.813.895.743 3.96-.614 11.06-4.9 19.523-11.783 29.278-15.671 32.138-12.81 1.28 1.279 1.346 2.172.394 5.275-.63 2.054-.943 3.937-.695 4.186.516.516 5.054-.224 33.153-5.407 11.093-2.045 20.838-3.462 21.656-3.149 2.986 1.146 2.983 6.223-.01 12.355-3.212 6.587-4.879 7.63-6.284 3.932-1.067-2.804-2.449-3.299-3.722-1.331-.445.688-1.054 9.575-1.353 19.75l-.543 18.5-.207-17.628c-.224-19.168-.985-21.98-4.805-17.767-1.679 1.853-1.965 4.282-2.445 20.747l-.543 18.648-.207-18.75c-.226-20.565-.462-21.224-5.657-15.801-1.554 1.621-3.764 3.084-4.912 3.25-1.148.165-2.552 1.237-3.12 2.382-.568 1.144-1.58 1.898-2.247 1.676-.667-.223-2.285.667-3.595 1.977-1.394 1.394-4.704 2.902-7.98 3.635-3.949.884-5.778 1.817-6.206 3.165-.445 1.403-1.91 2.085-5.49 2.56-4.62.613-8.999 3.284-8.999 5.49 0 1.617 9.96 15.916 11.086 15.916 1.929 0 6.15 11.193 7.486 19.85.734 4.757 2.29 11.108 3.458 14.111 1.167 3.004 1.919 6.526 1.67 7.828-.249 1.302-.045 4.18.453 6.397.815 3.629.654 4.264-1.624 6.374-1.39 1.29-2.529 2.816-2.529 3.392 0 1.399-3.308 1.34-4.733-.085-1.762-1.762-4.01-.312-4.752 3.065-.976 4.444-3.787 4.008-6.015-.932-.992-2.2-2.414-4-3.16-4s-2.076 1.8-2.957 4c-1.693 4.231-2.516 4.778-4.138 2.75zm248.252-41.778c-2.206-21.457-1.397-31.688 3.239-40.95 7.125-14.234 10.92-.582 5.14 18.495-1.163 3.84-2.287 8.558-2.497 10.483l-.383 3.5 1.465-3.793C914.704 700.717 921 698.502 921 708c0 3.825.932 6 2.572 6 2.448 0 3.673-4.19 3.627-12.412-.037-6.868.273-8.428 2.053-10.338 2.878-3.089 3.748-2.828 3.748 1.125 0 6.072 1.117 9.625 3.027 9.625 3.46 0 5.722-13.392 2.473-14.638-1.668-.64-2.029-5.978-.56-8.298.782-1.238 1.142-1.24 2.61-.023 1.522 1.264 2.152.894 5.975-3.514l4.274-4.926-.523 4.64c-.757 6.722.262 9.965 3.01 9.574 3.14-.447 5.232-6.876 4.286-13.18-.534-3.567-1.083-4.653-2.145-4.245-1.954.75-1.794-.065.7-3.569 1.17-1.643 2.93-5.537 3.909-8.654l1.782-5.667.09 4.405c.09 4.34.122 4.378 2.092 2.595 1.693-1.532 2-1.572 2-.262 0 .851-.73 1.828-1.623 2.17-1.308.503-1.533 1.693-1.164 6.143.527 6.355 1.89 8.438 4.245 6.484.937-.777 1.542-2.91 1.542-5.435 0-2.285.722-5.186 1.605-6.446.883-1.26 1.969-3.498 2.414-4.973l.81-2.681.085 2.75c.047 1.513.536 2.75 1.086 2.75s1 1.388 1 3.083c0 3.691 1.892 3.517 3.776-.347 1.063-2.18.996-3.735-.401-9.295-1.596-6.354-1.741-6.563-2.99-4.31-2.09 3.769-1.59 1.193.6-3.103 1.972-3.865 3.716-5.66 4.619-4.757.259.259-.03 1.57-.643 2.915-.944 2.072-.683 3.154 1.713 7.098 1.554 2.559 3.111 4.667 3.46 4.684.787.04 1.808-3.643 1.931-6.968.051-1.375.318-1.943.593-1.263.88 2.178-1.668 15.616-3.801 20.04-2.375 4.928-6.767 7.691-10.906 6.863-2.622-.524-2.836-.287-3.958 4.391-2.159 8.998-7.443 12.806-10.273 7.405-1.303-2.487-1.378-2.375-2.515 3.74-1.666 8.955-6.283 14.664-9.621 11.894-2.008-1.667-2.123-10.556-.23-17.852.744-2.87 1.222-5.218 1.062-5.218-.16 0-1.516 2.25-3.012 5-1.497 2.75-3.036 5-3.42 5-.383 0-1 4.014-1.37 8.919-.832 11.011-2.975 18.52-5.864 20.544-3.08 2.157-3.666 1.967-5.203-1.69l-1.357-3.227-1.245 6.329c-1.15 5.849-4.755 12.125-6.962 12.125-2.68 0-3.983-3.44-3.983-10.512 0-7.836-1.088-9.834-3.846-7.063-1.36 1.366-1.654 3.858-1.654 14.01 0 10.74-.248 12.625-1.905 14.457-1.048 1.16-2.206 2.108-2.575 2.108-.368 0-1.503-8.113-2.523-18.028zm7.175-27.472c.399-5.435.162-7.447-1.06-9-1.366-1.736-1.716-1.802-2.652-.5-1.097 1.526-.636 14.159.69 18.926l.675 2.427.917-2.427c.504-1.334 1.148-5.576 1.43-9.426zM551.42 735.25c-.438-.963-.852-5.8-.921-10.75-.07-4.95-.461-22.5-.872-39-.416-16.763-.36-31.324.13-33 .638-2.185 1.574-3.083 3.444-3.305l2.567-.305.62 31.805c.342 17.493.879 37.318 1.194 44.055l.572 12.25h-2.97c-1.858 0-3.267-.655-3.764-1.75zm-94.559-11c-.775-1.955-.894-25.298-.412-80.734.664-76.312.722-78.056 2.732-81.308 1.688-2.73 2.029-4.829 1.91-11.766-.079-4.643.25-8.442.731-8.442.482 0 1.706 1.843 2.722 4.096 1.696 3.76 1.816 6.578 1.462 34.25-.212 16.585-.66 56.254-.995 88.154-.336 31.9-.7 58.112-.81 58.25-.11.138-1.561.25-3.225.25-2.368 0-3.261-.596-4.115-2.75zm-95.22-27.318c-1.987-1.564-2.666-2.895-2.445-4.798.26-2.25.743-2.603 3.305-2.421 3.377.24 7.783 4.561 7.293 7.152-.472 2.49-5.024 2.528-8.153.067zm-39.055-5.996c-11.02-2.74-25.574-13.074-29.643-21.05-2.354-4.613-2.536-11.149-.372-13.313 7.74-7.74 30.857 5.351 29.262 16.573-.494 3.475-4.956 5.298-9.386 3.836-3.785-1.249-8.938-5.165-10.406-7.908-.78-1.458-.5-1.648 1.904-1.296 1.55.228 3.136-.099 3.524-.726 1.011-1.637-2.123-5.97-5.152-7.122-3.448-1.31-5.763-.44-7.196 2.707-3.436 7.54 12.76 22.734 22.322 20.94 3.856-.724 6.38-3.237 11.074-11.033l3.496-5.807-3.935-4.269c-7.682-8.334-10.52-18.09-5.972-20.524 4.905-2.625 14.061 2.542 17.924 10.113 2.893 5.67 2.429 6.466-1.757 3.016-8.48-6.99-13.683-.67-6.443 7.826 2.527 2.966 2.874 3.078 6.429 2.069 7.718-2.19 22.122 2.753 29.836 10.24 6.517 6.324 4.693 10.354-4.346 9.604-2.92-.243-7.91-1.713-11.248-3.315-3.3-1.583-6.39-2.906-6.866-2.938-.477-.032-1.602 1.92-2.5 4.338-.899 2.418-2.765 5.24-4.148 6.27-3.02 2.248-11.006 3.11-16.401 1.769zm39.165-13.682c.688-.9 1.25-1.968 1.25-2.373 0-1.548-5.388-4.88-7.885-4.877-3.285.005-9.398 3.647-8.856 5.276.606 1.822 8.874 4.732 11.741 4.133 1.375-.287 3.063-1.259 3.75-2.159zm442.453 12.49c-.573-.69-1.298-2.378-1.61-3.75-.312-1.372-.762-35.457-1-75.744L801.16 537l2.17.1c1.193.054 3.285.41 4.649.79l2.478.69-.298 59.96c-.209 41.913.075 64.092.941 73.69 1.394 15.437.78 18.77-3.456 18.77-1.32 0-2.868-.565-3.441-1.256zm119.098-4.4c-.981-2.558 1.9-6.801 4.853-7.148 3.356-.394 4.306 2.014 2.313 5.867-1.72 3.326-6.082 4.105-7.166 1.28zm-645.63-34.594C266.01 635.165 241 586.896 241 579.981c0-2.29 3.637-4.981 6.732-4.981 1.258 0 6.163 2.096 10.9 4.657 8.663 4.684 10.315 5.027 19.855 4.125 2.906-.274 3.219.156 11.5 15.834 4.682 8.864 10.508 19.214 12.947 23 2.438 3.786 5.058 7.866 5.82 9.067 1.06 1.665 1.125 2.675.279 4.256C307.59 638.634 284.66 654 282.08 654c-1.088 0-3.072-1.462-4.41-3.25zm491.954-7.875c-.344-1.719-.625-16.822-.625-33.563v-30.439l3.25.314 3.25.313.185 13c.102 7.15.424 20.997.717 30.77.583 19.443.04 22.73-3.752 22.73-1.888 0-2.533-.667-3.025-3.125zm227.803-9.92C986.566 625.247 981 620.631 981 619.331c0-.462 3.828-7.949 8.506-16.638 4.678-8.69 10.832-21.512 13.675-28.496 2.842-6.983 5.595-13.26 6.116-13.947 1.79-2.36 5.078-1.24 13.943 4.75 7.147 4.83 9.653 6 12.841 6 3.213 0 4.169.454 5.057 2.404 1.507 3.306-3.346 16.71-12.705 35.096-10.707 21.033-17.322 31.5-19.91 31.5-.643 0-5.635-3.17-11.095-7.045zm-444.837-.131c-1.341-4.4-2.593-20.38-2.592-33.074L550 585h8l-.118 21.25c-.065 11.688-.406 22.595-.758 24.238-.662 3.094-3.808 4.715-4.533 2.336zm177.85-.242c-1.795-1.31-1.964-2.982-2.253-22.25-.379-25.324-.11-27.332 3.666-27.332 1.52 0 3.58.597 4.578 1.326 1.701 1.245 1.768 2.822 1.073 25.5-.734 23.986-.757 24.174-2.931 24.174-1.206 0-3.065-.638-4.133-1.418zm-42.856-3.27c-1.733-2.377-1.956-4.966-2.339-27.22-.318-18.464-.75-24.932-1.735-25.957-1.106-1.15-2.627-.933-9.662 1.38-11.779 3.872-12.218 4.375-11.433 13.089.556 6.167.381 7.42-1.327 9.5-1.87 2.276-2.108 2.319-4.778.846-2.755-1.52-2.811-1.727-2.811-10.473 0-10.411-1.068-11.434-7.375-7.064-4.728 3.277-5.38 3.246-10.594-.498-5.329-3.827-8.549-3.634-9.753.585-.47 1.65-.556 11.88-.19 22.733.606 17.977.515 19.79-1.025 20.381-.93.357-2.778.153-4.107-.452l-2.417-1.101-.27-21.777-.269-21.776-7.25-2.875c-7.83-3.105-9.146-4.63-4-4.637 1.787-.002 10-1.137 18.25-2.523 8.25-1.385 19.552-3.164 25.115-3.952 9.25-1.312 21.95-3.297 54.85-8.574 7.464-1.197 12.317-1.565 12.903-.979.586.586-3.766 3.164-11.574 6.854-6.882 3.253-12.772 6.333-13.088 6.845-.316.512-.843 9.459-1.17 19.882-.484 15.42-.28 20.65 1.093 28.067.928 5.014 1.405 9.852 1.06 10.75-.935 2.438-3.935 1.919-6.104-1.055zM523.694 614.25c-1.974-4.274-2.225-6.678-2.503-23.993l-.31-19.242 2.685-2.489c1.477-1.369 3.094-2.236 3.592-1.928.521.322.632 5.952.26 13.231-.501 9.809-.283 14.412.967 20.379 2.52 12.026 1.929 18.792-1.641 18.792-.471 0-1.844-2.138-3.05-4.75zm-30.65-29.143c-.658-1.59-1.05-4.178-.87-5.75.264-2.313.876-2.92 3.217-3.187 3.683-.42 4.188.483 3.762 6.734-.308 4.538-.596 5.096-2.628 5.096-1.574 0-2.654-.897-3.48-2.893zM389.5 574.406c-11.55-1.314-21.479-2.571-22.064-2.795-.586-.223-5.942-8.573-11.902-18.554-5.96-9.982-11.557-18.527-12.436-18.99-.879-.461-8.123-.449-16.098.028-7.975.477-18.08.989-22.453 1.136l-7.954.269-3.046 4.137c-1.676 2.276-7.428 10.87-12.783 19.097l-9.736 14.96-10.514-5.393L250 562.907l-17.75 4.573c-9.763 2.516-18.471 4.796-19.353 5.068-1.075.33-2.528-.913-4.409-3.777-5.334-8.122-20.841-28.31-29.398-38.271-9.828-11.441-35.605-37.5-37.095-37.5-1.381 0-1.313.946 1.471 20.329 2.729 18.996 4.742 42.817 3.703 43.81-.53.507-38.058 7.46-44.169 8.183-1.278.152-1.593-3.152-2.125-22.322-.503-18.099-1.137-25.239-3.241-36.5-3.46-18.518-7.389-34.352-13.616-54.866-2.816-9.276-4.984-17.555-4.819-18.397.2-1.014 5.352-3.15 15.278-6.33l14.976-4.799 3.023 2.318c1.663 1.275 13.374 11.31 26.024 22.302 22.653 19.684 46.287 42.95 59.99 59.056 3.844 4.519 7.556 8.216 8.25 8.216 1.83 0 1.664-29.814-.248-44.4-2.246-17.136-6.801-41.007-11.404-59.759-2.248-9.162-4.088-16.88-4.088-17.152 0-.907 38.114-11.689 41.319-11.689 2.543 0 7.735 19.892 13.144 50.354 4.699 26.465 6.53 46.75 6.534 72.396.003 18.36.21 21.25 1.525 21.25 3.067 0 23.849-35.523 34.478-58.936 5.695-12.542 19-46.063 19-47.866 0-.524.666-1.506 1.48-2.182 1.652-1.37 43.41-10.01 43.964-9.096.194.32.682 3.73 1.084 7.58 2.373 22.696 18.94 72.869 38.967 118 15.045 33.905 17.2 36.401 16.189 18.75-1.558-27.19-9.562-64.073-22.7-104.599-2.698-8.321-4.585-15.433-4.195-15.804.391-.371 7.684-3.824 16.206-7.673 18.106-8.177 15.365-8.542 30.516 4.064 13.623 11.335 37.603 37.66 54.504 59.835 5 6.56 9.729 11.927 10.51 11.927.873 0 2.044-2.213 3.043-5.75 13.166-46.627 26.91-91.056 28.757-92.963.646-.667 8.088-3.312 16.538-5.876 17.478-5.306 15.604-5.83 20.06 5.615C572.6 427.457 585.65 474.536 591.019 505c2.775 15.748 6.592 52.668 5.716 55.296-.378 1.132-40.422 11.684-41.239 10.867-.273-.273-.496-3.415-.496-6.983 0-11.265-3.011-34.1-6.684-50.68-4.582-20.687-9.496-37.75-11.015-38.243-4.386-1.425-15.789 37.658-20.786 71.243-.911 6.124-2.051 10.413-2.942 11.067-1.857 1.362-25.01 6.787-26.642 6.243-.676-.225-1.833-2.773-2.573-5.662-3.353-13.103-12.236-29.72-26.54-49.648-10.613-14.786-16.213-20.946-18.31-20.141-1.007.386-1.437 1.313-1.108 2.386 1.029 3.36 6.531 34.812 7.562 43.229.57 4.66 1.038 11.26 1.038 14.666v6.193l-15.25 3.637c-22.934 5.47-22.75 5.411-22.745 7.319.003.94 1.114 3.511 2.469 5.711 1.355 2.2 2.478 4.338 2.495 4.75.04.956.386.982-24.469-1.844zm-53.75-62.004c1.884-.286 3.25-1.08 3.25-1.892 0-.77-2.778-8.867-6.173-17.995-4.51-12.124-6.575-16.517-7.663-16.305-1.76.343-20.512 35.417-19.667 36.785.559.904 23.316.458 30.253-.593zm403.03 41.768c.596-20.598-.302-32.42-2.428-31.976-.806.168-3.263 4.356-5.46 9.306-2.196 4.95-4.533 9.49-5.192 10.087-1.14 1.033-13.624 3.147-73.2 12.395-14.3 2.22-30.203 4.709-35.339 5.53-5.136.823-9.749 1.243-10.25.933-.501-.31-.914-4.699-.917-9.754-.013-18.707-6.428-62-12.962-87.474-2.297-8.956-4.032-16.677-3.854-17.157.177-.48 5.722-4.742 12.322-9.47l12-8.595 9 .51c7.345.417 76.216 2.753 81.5 2.764.825.002 2.03.42 2.677.929 1.202.945 8.747 23.712 8.079 24.38-.203.202-12.493-.08-27.312-.628-30.16-1.114-52.321-.433-53.114 1.632-.705 1.838 2.656 16.66 4.135 18.233 1.022 1.086 7.745.987 38.636-.574 20.57-1.04 37.536-1.794 37.703-1.678.492.342-2.102 21.3-2.77 22.383-.337.544-14.77 2.127-32.073 3.518-17.304 1.39-33.407 2.788-35.786 3.105l-4.325.576.69 10.178c.378 5.597 1.092 10.61 1.585 11.138.572.612 7.158.183 18.136-1.182 50.445-6.27 74.37-9.606 75.508-10.528 1.49-1.206 1.348-2.193-3.478-24.251-1.925-8.8-6.416-24.94-9.98-35.866-3.564-10.926-6.104-20.209-5.645-20.63.458-.42 7.584-2.903 15.834-5.518l15-4.755 13.5 2.225c14.724 2.427 51.407 10.775 64.284 14.63 28.534 8.54 48.02 18.699 53.798 28.046 2.58 4.174 2.825 9.713.62 13.978-3.064 5.925-14.545 11.606-32.333 16-12.112 2.991-14.004 3.92-12.259 6.023.624.752 1.545 1.367 2.047 1.367 2.325 0 25.987 9.934 41.105 17.256 12.339 5.976 17.057 7.825 17.879 7.003 1.753-1.753-2.428-29.075-7.546-49.315-2.427-9.594-6.679-23.956-9.449-31.915-2.77-7.96-4.879-14.63-4.685-14.823C875.498 431.17 904.838 422 907.119 422c1.482 0 9.864 1.342 18.626 2.983 44.436 8.32 82.72 20.08 99.168 30.462 2.329 1.47 4.71 2.514 5.291 2.32.582-.194 1.886-3.049 2.897-6.344 2.646-8.619 7.352-13.627 17.24-18.346 9.738-4.648 19.498-6.977 33.519-7.997 13.228-.963 25.9.095 35.586 2.97 4.562 1.355 7.997 1.903 8.53 1.36.524-.534-.48-4.2-2.44-8.908-1.833-4.4-3.18-8.25-2.994-8.557.59-.973 39.487-16.248 40.019-15.716.28.28 1.863 6.981 3.518 14.891 1.655 7.91 5.175 24.507 7.824 36.882 2.648 12.375 4.513 22.843 4.145 23.261-.506.575-18.785 4.96-29.368 7.044-.543.107-2.526-2.505-4.406-5.805-4.17-7.317-6.324-9.688-12.216-13.441-8.54-5.44-16.146-7.302-30.058-7.36-13.594-.058-18.839 1.262-20.99 5.283-2.712 5.067 3.867 9.116 30.249 18.618 53.393 19.23 70.221 27.027 81.573 37.792 5.864 5.56 8.168 10.319 8.168 16.872 0 16.352-19.918 27.59-54.393 30.693-20.008 1.8-47.237-1.02-72.024-7.46l-9.913-2.576-13.82 4.79c-12.877 4.463-13.986 4.687-16.273 3.289-1.35-.825-7.89-5.181-14.532-9.681-24.264-16.437-54.94-28.319-73.11-28.319-4.986 0-5.935.28-5.934 1.75 0 .963.471 10.031 1.047 20.152.576 10.122.688 18.76.25 19.197-.646.643-22.75 5.08-41.548 8.341l-3.75.65v-7.576c0-5.375-.386-7.725-1.327-8.086-.73-.28-4.497.634-8.371 2.031-3.874 1.398-7.776 2.541-8.67 2.541-.895 0-4.406-2.046-7.803-4.547-25.358-18.667-58.631-32.945-79.706-34.203l-9.429-.562.615 3.906c.957 6.08 2.077 38.406 1.33 38.406-.365 0-10.609 1.8-22.762 4s-22.206 4-22.34 4c-.133 0-.023-7.574.244-16.83zm411.852-21.48c4.54-2.348 4.986-4.534 1.61-7.909-2.194-2.194-11.235-5.898-39.79-16.3-36.877-13.433-55.698-21.596-64.697-28.062-2.618-1.88-5.379-3.419-6.136-3.419-.757 0-1.961 1.412-2.676 3.137-2.578 6.225-15.447 12.513-36.325 17.75-12.428 3.117-12.293 3.702 2.072 8.999 4.295 1.584 13.617 5.45 20.714 8.59l12.904 5.711 8.815-6.108 8.815-6.11 5.781 4.386c13.553 10.282 34.284 17.94 55.89 20.646 10.753 1.347 29.308.61 33.023-1.31zm-355.257-37.705c27.487-2.278 42.474-9.18 37.249-17.156-3.257-4.97-21.98-14.212-36.118-17.828-10.076-2.576-25.444-4.463-26.638-3.27-.542.543-.3 2.625.601 5.182.83 2.352 2.663 9.97 4.074 16.931 1.411 6.96 2.982 13.668 3.49 14.906 1.064 2.59 1.014 2.587 17.342 1.235zm172.036-1.497c10.753-1.876 18.932-4.921 22.95-8.547 3.029-2.732 3.085-2.93 1.61-5.62-4.938-9.004-33.53-20.61-56.222-22.822-8.33-.812-8.662-.28-5.808 9.304 1.146 3.846 2.996 11.426 4.112 16.845 3.147 15.276 1.49 13.741 14.015 12.98 5.963-.362 14.667-1.325 19.343-2.14zM534.75 543.792c-3.103-1.082-3.489-3.756-1.699-11.792 2.176-9.768 3.421-9.077 5.106 2.834 1.29 9.118.794 10.422-3.407 8.958zM453 431.455c-11.754-11.893-24.815-22.616-31.766-26.08-6.902-3.44-10.233-2.895-25.662 4.207-13.693 6.303-13.57 6.327-16.08-3.082-5.96-22.336.431-51.233 16.842-76.143 6.264-9.508 6.146-10.584-1.584-14.47-8.652-4.35-21.79-13.99-26.786-19.656-5.358-6.075-8.93-13.15-9.632-19.078-1.03-8.702 9.505-34.356 20.89-50.864 9.862-14.298 28.267-28.944 41.258-32.828 15.576-4.659 38.273-1.665 60.485 7.976 11.723 5.089 18.048 8.871 27.207 16.272 7.974 6.442 7.85 6.437 23.328.924 14.495-5.163 26.29-6.965 41.5-6.34 13.252.544 19.942 2.136 36.5 8.685 26.754 10.581 32.599 11.26 46.5 5.405 4.675-1.97 10.3-4.17 12.5-4.892 2.2-.722 5.575-1.978 7.5-2.791 5.85-2.473 19.983-5.638 29.5-6.607 15.751-1.603 35.144 1.84 50.362 8.939 3.5 1.632 7.118 2.968 8.042 2.968.924 0 3.686-2.06 6.138-4.578 5.535-5.684 19.671-15.26 29.241-19.809 3.97-1.886 11.267-4.483 16.217-5.77 7.913-2.059 10.932-2.31 25-2.085 13.15.211 17.158.636 22.5 2.388 16.916 5.548 29.308 15.125 38.423 29.693 1.493 2.386 6.957 13.411 12.142 24.5 8.762 18.738 9.428 20.605 9.431 26.45.005 8.97-2.338 12.845-15.86 26.218-8.958 8.858-13.247 12.312-18.636 15.008-4.982 2.492-7.088 4.117-7.306 5.638-.186 1.298 2.465 6.558 6.761 13.416 8.81 14.063 13.421 27.985 15.612 47.136.629 5.5-.976 21.03-2.628 25.43-.635 1.69-4.089 3.223-16.62 7.375-8.7 2.882-17.03 5.857-18.508 6.61-3.475 1.768-5.811 5.15-5.811 8.411 0 1.423-.595 3.4-1.322 4.395-1.234 1.687-1.531 1.701-4.406.215-1.695-.877-9.313-3.459-16.927-5.738-7.615-2.278-14.38-4.571-15.035-5.095-.846-.677-1.068-4.472-.768-13.13.232-6.698.43-13.003.44-14.011.028-2.845 1.706-1.624 5.27 3.833 3.362 5.146 7.155 6.995 8.9 4.337.483-.735.6-4.098.259-7.474-1.213-12.011 1.8-16.099 5.799-7.868 2.396 4.931 4.609 6.208 7.8 4.5 2.906-1.556 3.831-4.623 3.241-10.745-.465-4.83-.337-5.25 1.599-5.25 1.157 0 2.841 1.125 3.742 2.5 2.284 3.485 4.384 3.133 8.901-1.493 3.369-3.45 3.867-4.537 3.662-8-.205-3.483.04-4.007 1.87-4.007 3.232 0 5.593 1.643 6.771 4.712 1.65 4.295 3.97 17.84 4.709 27.487 1.358 17.738 7.464 12.649 7.436-6.199-.024-16.31-5.05-34.339-14.14-50.714-8.778-15.812-15.773-25.087-30.051-39.846-7.212-7.455-12.75-14.003-12.75-15.075 0-1.042.9-3.574 2-5.626 3.196-5.963 2.745-7.739-1.965-7.739-5.446 0-7.177-2.964-4.134-7.08 2.501-3.383 2.5-3.376.613-5.263-1.3-1.3-2.24-1.31-7.51-.08-3.313.772-7.65 2.084-9.636 2.914-5.506 2.3-7.075 1.89-10.481-2.741-7.196-9.785-7.243-13.913-.248-21.693 11.049-12.29 32.786-16.354 47.609-8.903 6.529 3.283 14.455 12.355 19.005 21.754 3.508 7.246 4.22 9.782 4.552 16.188.445 8.597-1.208 13.11-6.713 18.341-3.785 3.596-4.198 7.563-.788 7.563 1.268 0 4.433-1.35 7.035-3 2.602-1.65 5.71-3 6.908-3 1.214 0 4.084 1.872 6.488 4.23 5.15 5.055 6.161 4.751 11.043-3.314 4.581-7.57 5.483-11.84 5.048-23.903-.358-9.94-.625-11.058-4.894-20.513-15.355-34.01-35.27-47.473-65.65-44.383-23.067 2.346-43.669 13.567-58.593 31.913-2.223 2.734-4.83 4.97-5.794 4.97-.963 0-4.371-1.556-7.573-3.459-7.543-4.48-17.953-8.364-27.16-10.132-8.572-1.646-25.565-1.847-33.276-.394-9.482 1.787-19.347 7.24-27.067 14.96-9.64 9.638-9.308 10.445 4.443 10.809 8.156.215 10.738.605 10.738 1.621 0 .844-1.787 1.574-4.845 1.98-8.405 1.115-25.303 7.419-33.84 12.624-4.502 2.745-9.114 4.991-10.248 4.991-1.134 0-4.263-1.581-6.953-3.513-9.716-6.98-24.23-12.562-37.47-14.41-7.711-1.076-8.42-1.437-6.754-3.444 2.023-2.438 9.458-2.92 16.141-1.044 6.793 1.906 8.636 1.206 7.608-2.89-.872-3.477-12.377-13.895-20.138-18.235-6.34-3.546-7.018-3.698-18.825-4.208-16.585-.716-29.062.886-41.288 5.301-5.438 1.964-11.857 4.667-14.264 6.007-6.717 3.74-9.053 3.299-13.403-2.528-11.59-15.524-34.925-28.671-55.925-31.509-7.458-1.008-23.098 1.993-31.469 6.04-16.09 7.776-25.377 17.648-34.92 37.123-5.22 10.653-5.512 11.665-6.086 21.08-.743 12.2.555 18.18 5.658 26.075 5.598 8.663 8.322 8.92 13.007 1.234 3.126-5.129 5.468-5.246 11.582-.579 2.522 1.925 5.725 3.786 7.116 4.136 3.6.903 4.697-1.39 2.195-4.59-11.135-14.24-12.494-23.463-5.618-38.122 8.206-17.498 25.975-28.003 42.56-25.162 8.486 1.454 18.272 6.357 24.319 12.186 4.53 4.367 4.86 5.02 4.86 9.646 0 5.081-1.142 7.557-5.84 12.656-3.022 3.28-4.917 3.379-14.403.75-8.691-2.409-11.35-2.504-12.143-.436-.33.86.392 3.287 1.604 5.393 1.894 3.292 2.011 4.062.834 5.48-.935 1.127-2.223 1.465-4.052 1.063-4.09-.898-5.872 1.754-3.677 5.47 3.419 5.787 2.428 8.455-6.453 17.37-32.486 32.607-46.87 60.657-46.87 91.4 0 11.556 1.49 18.26 4.057 18.26 1.976 0 2.33-1.64 3.492-16.221.34-4.247 1.377-10.997 2.308-15l1.691-7.279h3.976c4.14 0 4.021-.159 4.37 5.827.058 1.005 1.421 3.142 3.03 4.75 3.543 3.544 8.434 3.992 10.076.923.589-1.1 1.73-2 2.535-2 1.124 0 1.465 1.397 1.465 6 0 4.726.438 6.438 2.061 8.061 3.273 3.273 5.995 2.12 9.408-3.982 5.07-9.067 5.95-8.19 5.154 5.137-.57 9.53-.434 11.696.797 12.718 2.492 2.067 4.916.774 8.33-4.447 1.795-2.743 3.71-5.137 4.257-5.32.62-.208.993 4.064.993 11.376 0 8.343.596 14.25 2.074 20.546 3.349 14.261 2.885 14.454-8.074 3.366zm577.243-2.705c-.552-.688-1.31-4.85-1.687-9.25-.628-7.35-2.75-25.076-4.18-34.927-1.83-12.6-11.446-44.86-19.037-63.867-11.254-28.179-24.39-52.02-41.163-74.706-48.884-66.12-114.885-113.048-195.676-139.13-23.912-7.72-53.825-14.155-81.5-17.534-17.912-2.188-70.116-2.486-88-.503-29.208 3.238-65.437 10.96-90 19.181-90.766 30.384-163.945 88.211-210.447 166.3-19.16 32.173-32.903 68.834-41.49 110.676-1.982 9.658-2.947 12.563-4.256 12.812-1.815.346-2.901-2.505-6.328-16.606-1.38-5.677-2.435-7.823-4.84-9.847-2.779-2.338-3.635-2.53-8.846-1.985-5.3.554-5.895.41-7.323-1.77-1.438-2.194-1.328-3.27 1.45-14.234 4.589-18.11 11.573-40.313 16.081-51.127 6.153-14.757 23.139-46.033 33.527-61.733 19.936-30.13 50.478-63.991 78.332-86.845a2740.942 2740.942 0 0 0 14.29-11.793c10.624-8.886 48.77-32.42 66.35-40.937 33.817-16.381 44.316-20.607 69.455-27.953 16.665-4.87 54.808-13.17 74.545-16.222l21-3.247 39.5.05c35.05.044 41.247.296 55 2.235 28.657 4.04 54.622 9.75 88 19.353 29.91 8.605 70.376 27.69 101 47.632 29.735 19.364 44.781 31.432 69.655 55.872 26.97 26.498 50.02 56.854 66.565 87.661 3.898 7.257 7.662 13.871 8.366 14.699 2.278 2.677 10.967 24.088 16.232 39.995 6.595 19.926 16.967 58.91 18.756 70.5 1.502 9.723 1.845 22.295.66 24.15-.403.633-3.434 1.927-6.734 2.875-7.456 2.142-17.712 6.71-21.165 9.426-2.993 2.354-4.669 2.574-6.093.799zm-440.547-3.387c-.35-.35.227-1.85 1.283-3.334 3.25-4.563 19.355-12.122 28.521-13.386 2.2-.303 8.682-1.245 14.404-2.094 9.771-1.45 19.856-1.052 23.026.908.504.31 3.28 1.014 6.17 1.562 7.691 1.459 16.572 5.709 15.07 7.212-.909.908-2.224.902-5.69-.025-2.48-.663-5.347-1.206-6.372-1.206-1.025 0-2.437-.691-3.138-1.536-1.092-1.316-4.426-1.485-23.372-1.18-25.866.417-29.112 1.124-39.818 8.666-6.997 4.93-8.784 5.712-10.084 4.413zm123.95-21.044c-6.393-12.841-13.735-24.34-21.913-34.319-8.362-10.203-11.966-8.22-7.802 4.293 2.877 8.644 7.909 32.605 7.32 34.856-.584 2.232-2.533 2.354-6.097.382-1.46-.807-4.307-2.12-6.328-2.917-2.952-1.164-4.23-2.595-6.5-7.281-3.199-6.603-5.92-8.052-6.85-3.65-1.07 5.061-1.935 5.802-7.143 6.113-7.944.473-9.774-.704-11.593-7.462-.864-3.209-1.875-8.492-2.247-11.74-.889-7.765-1.278-8.594-4.033-8.594-2.676 0-2.717.108-4.971 13.084-.916 5.27-2.005 10.132-2.42 10.803-.414.671-3.302 1.886-6.416 2.7-7.165 1.87-9.653.84-9.653-4 0-1.838-.607-3.846-1.348-4.461-1.669-1.385-3.238.27-7.084 7.474-2.198 4.118-3.853 5.707-8.59 8.25-3.227 1.733-6.52 3.15-7.316 3.15-1.743 0-2.662-2.12-2.662-6.14 0-3.655 5.023-23.719 8.445-33.734 2.647-7.746 2.59-9.126-.377-9.126-3.323 0-9.947 8.354-22.725 28.662-1.048 1.666-1.305 1.49-2.75-1.88-2.138-4.989-2.008-7.301.606-10.838 2.036-2.753 2.078-3.096.564-4.61-1.445-1.444-2.327-1.488-7.593-.37-10.82 2.296-37.084-.098-55.17-5.03-18.597-5.071-24.088-7.123-22.897-8.558.651-.785 3.024-1.376 5.52-1.376 3.534 0 4.377-.344 4.377-1.784 0-.982-1.462-2.621-3.25-3.644-6.614-3.782-13.614-9.774-18.118-15.507-2.548-3.243-4.632-6.38-4.632-6.973 0-.652 1.874-.981 4.75-.834l4.75.242.315-3.826c.426-5.18-1.392-7.578-9.205-12.147-7.68-4.492-17.61-13.782-17.61-16.476 0-2.628 12.747-14.151 23.992-21.689 14.421-9.665 15.452-8.467 5.508 6.403-7.984 11.939-8.153 13.666-1.87 19.038 11.58 9.897 66.697 37.95 89.805 45.707 8.54 2.867 17.284 3.24 23.83 1.018 2.383-.809 7.604-2.159 11.6-3 11.603-2.44 11.498-2.325 10.682-11.686-.77-8.833-2.711-15.262-7.423-24.596-4.025-7.973-2.386-8.136 4.99-.496 8.073 8.363 11.582 13.26 16.885 23.567 3.937 7.651 5.16 9.235 7.328 9.496 2.152.259 2.708-.174 3.207-2.5 2.177-10.131 7.814-18.753 19.35-29.592 7.436-6.987 10.726-8.075 7.231-2.392-3.654 5.944-6.205 14.158-7.17 23.1-.532 4.912-.727 9.681-.436 10.599.659 2.075 4.674 3.972 8.409 3.972 1.553 0 7.43 1.326 13.06 2.946l10.236 2.946 11.143-2.846c16.833-4.3 33.595-10.617 49.143-18.52 21.703-11.033 46.466-27.856 49.587-33.69 1.518-2.834-3.579-11-13.337-21.37-4.263-4.53-7.75-8.513-7.75-8.851 0-4.422 25.692 13.229 38.88 26.711l5.38 5.5-2.233 3.137c-2.665 3.742-11.533 11.247-18.744 15.864-2.858 1.83-5.408 4.08-5.665 5-2.336 8.343-1.354 11.267 3.205 9.546 1.828-.69 3.524-.758 4.55-.184 1.423.796 1.146 1.51-2.117 5.442-2.066 2.489-7.919 7.704-13.006 11.59-10.894 8.321-11.915 10.77-4.5 10.794 5.123.017 7.89 1.142 6.868 2.794-1.16 1.878-22.42 8.322-34.369 10.418-7.759 1.36-18.542 2.266-31.749 2.667-19.536.592-20.007.656-20.309 2.773-.191 1.346 1.429 4.527 4.275 8.394 5.596 7.601 15.534 24.974 15.534 27.155 0 1.553-4.67 3.784-7.92 3.784-1.07 0-3.596-3.969-7.435-11.68zm-165.004-51.46c4.856-1.222 6.483-3.242 4.245-5.272-.763-.692-11.287-4.55-23.387-8.572-12.1-4.023-23.278-7.955-24.84-8.737-3.467-1.737-5.66-1.05-5.66 1.77 0 2.675 9.891 12.594 16.219 16.263 8.411 4.878 23.798 6.972 33.423 4.549zm206.008-.254c9.565-2.547 21.029-10.622 26.143-18.415 1.36-2.074 1.353-2.472-.075-3.9-1.454-1.455-2.036-1.4-6.778.64-6.18 2.66-24.037 8.846-36.093 12.505-9.592 2.912-12.092 4.749-9.707 7.134 3.18 3.18 17.955 4.314 26.51 2.036z" style="display:inline;fill:#000;fill-opacity:1"/></svg>