<svg xmlns="http://www.w3.org/2000/svg" width="1280" height="900"><path d="M688.38 846.548c-1.062-2.767.76-3.548 8.278-3.548 8.86 0 13.767-1.892 15.12-5.83 1.542-4.493.49-5.499-3.3-3.156-7.841 4.846-20.616 3.088-24.559-3.379-2.491-4.086-2.497-11.175-.013-15.248 1.058-1.736 3.972-4.118 6.58-5.38 3.88-1.879 5.785-2.179 11.113-1.751 4.562.366 6.643.152 7.165-.739.405-.69 1.745-1.568 2.978-1.95 1.758-.547 2.45-.197 3.208 1.618 1.495 3.585 5.05 22.627 5.05 27.054 0 8.086-9.985 13.761-24.213 13.761-5.066 0-6.995-.378-7.407-1.452zm18.37-16.537c2.952-1.8 3.25-2.43 3.25-6.861 0-8.802-6.353-13.118-14.374-9.767-4.806 2.008-6.987 6.724-5.538 11.973 1.745 6.319 10.103 8.654 16.662 4.655zm-83.615 9.652c-1.546-1.863-.29-26.289 1.424-27.712.687-.57 2.469-.731 3.959-.357l2.709.68-.721 13.613c-.396 7.487-.924 13.95-1.172 14.363-.75 1.246-5.013.842-6.199-.587zm18.957-.052c-.774-.933-1.061-5.622-.873-14.25l.281-12.861 3.25-.313c2.478-.24 3.25.078 3.25 1.333 0 .906.338 1.473.75 1.26 5.947-3.06 9.177-3.936 12.955-3.51 9.13 1.03 11.937 5.365 12.458 19.239l.337 8.991h-7l-1.153-9.962c-.954-8.249-1.532-10.27-3.36-11.75-3.178-2.573-8.163-2.281-11.341.664-2.523 2.339-2.646 2.92-2.646 12.5V841h-2.878c-1.582 0-3.396-.625-4.03-1.39zm-39.06-1.193c-1.907-.828-3.844-2.048-4.304-2.711-.46-.664-.559-5.785-.22-11.38.61-10.075.593-10.175-1.696-10.5-3.214-.455-3.227-4.316-.016-4.353 1.43-.017 2.76-.96 3.523-2.5.856-1.727 2.201-2.569 4.454-2.787 2.979-.29 3.227-.087 3.227 2.643 0 3.215 1.392 4.17 6.082 4.17 2.251 0 2.918.457 2.918 2 0 1.726-.667 2-4.86 2h-4.861l-.631 5.25c-1.533 12.76-.875 14.75 4.875 14.75 2.747 0 3.733 1.17 2.873 3.41-.785 2.046-6.656 2.05-11.364.008zm-26.295-2.668c-1.502-1.14-1.519-1.908-.193-8.75 1.868-9.636 1.831-11.315-.301-13.949-1.296-1.6-2.898-2.185-6.103-2.23-6.064-.083-7.896 2.114-10.134 12.15-1.013 4.546-2.264 8.687-2.78 9.202-.998 1-5.917.136-6.731-1.181-.268-.433.933-6.683 2.668-13.89L556.318 804h2.935c2.061 0 3.085.576 3.44 1.937.42 1.606.929 1.777 2.972 1 6.331-2.407 14.807-.009 18.69 5.287 1.897 2.588 1.934 3.215.725 12.5C583.756 834.9 582.898 837 580.07 837c-.928 0-2.427-.563-3.332-1.25zm-43.556-7.807c-1.556-.624-2.156-1.509-1.823-2.686.273-.967 2.12-7.044 4.104-13.507 3.556-11.584 3.65-11.75 6.604-11.75 1.673 0 3.239.63 3.544 1.426.538 1.402-4.958 22.397-6.76 25.824-1.018 1.935-2.21 2.08-5.67.693zm215.148-4.4c-6.138-2.67-7.175-9.37-2.31-14.912l3.02-3.439-3.02-3.019c-4.493-4.493-4.194-8.879.921-13.5 4.233-3.824 9.057-5.272 13.97-4.193 3.52.773 7.09 4.781 7.09 7.96 0 2.15-3.9 8.263-6.167 9.663-1.155.714 2.144 2.442 10.365 5.428l3.698 1.344.616-4.688c.338-2.578.699-5.311.802-6.074.102-.763 1.213-1.766 2.468-2.23 1.928-.712 2.445-.418 3.323 1.887.98 2.572.861 4.532-.639 10.509-.56 2.232-.203 2.648 3.202 3.737 2.108.674 4.218 1.58 4.69 2.012 1.655 1.52-3.618 3.22-8.274 2.668-3.992-.472-5.118-.156-8.55 2.403-7.19 5.361-18.508 7.356-25.205 4.443zm20.3-6.623c1.854-1.146 3.371-2.457 3.371-2.914 0-.457-3.712-2.254-8.25-3.992-8.914-3.416-10.297-3.272-12.545 1.31-1.547 3.149-.29 6.27 3.11 7.722 3.175 1.356 10.422.28 14.315-2.126zm-7.088-24.792c-1.512-4.763-10.655-3.26-11.389 1.872-.247 1.73.475 3.088 2.498 4.701l2.846 2.27 3.36-3.36c2.532-2.532 3.193-3.882 2.685-5.483zM508.037 820.89c-1.355-.54-2.654-1.174-2.887-1.406-.232-.233 1.754-6.287 4.415-13.454 4.095-11.032 5.159-13.03 6.936-13.03 2.593 0 4.515 1.795 3.83 3.578-.406 1.06.174 1.138 2.822.378 4.523-1.297 6.126-1.206 8.406.477 2.855 2.107.454 4.065-4.542 3.704-4.933-.356-7.903 2.3-10.517 9.406-4.655 12.65-4.172 12.06-8.463 10.347zm115.95-14.699c-3.888-3.148.465-7.625 5.036-5.179 2.677 1.433 2.254 4.985-.724 6.079-1.536.564-2.839.292-4.311-.9zm-157.395-.5c-1.806-1.32-1.483-2.183 6.946-18.538 6.331-12.285 9.336-17.153 10.587-17.153 3.596 0 18.322 6.556 21.537 9.588 2.803 2.644 3.338 3.854 3.338 7.558 0 10.648-8.856 14.304-23.61 9.748-3.75-1.159-6.959-1.721-7.13-1.25-.17.47-1.536 3.106-3.035 5.856-2.911 5.341-5.404 6.552-8.633 4.19zm31.443-13.21c3.338-1.725 4.71-5.552 3.187-8.893-.813-1.786-10.553-7.588-12.737-7.588-.253 0-2.035 3.127-3.96 6.95-3.817 7.58-3.83 7.534 2.869 9.631 5.477 1.714 7.165 1.699 10.641-.1zm320.16 7.769c-1.068-1.512-3.401-5.675-5.185-9.25a395.721 395.721 0 0 0-6.69-12.71l-3.448-6.21-5.186 2.098c-7.327 2.964-9.305 3.258-9.985 1.485-.32-.834-.046-1.942.608-2.462 1.848-1.466 30.694-14.201 32.168-14.201 1.816 0 2.66 2.649 1.214 3.808-.655.525-3.56 2.144-6.454 3.597l-5.263 2.642 4.225 7.726c2.324 4.25 6.142 11.102 8.484 15.227l4.258 7.5-2.081 1.75c-2.885 2.425-4.409 2.197-6.665-1zM541.2 794.8c-1.842-1.842-1.427-4.593.8-5.3 4.29-1.362 8.35 2.168 5.895 5.127-1.405 1.693-5.08 1.788-6.695.173zm-115.14-1.228c-.966-1.163-.232-2.18 3.968-5.5 2.833-2.24 5.99-4.072 7.015-4.072 2.166 0 6.957 2.03 6.957 2.948 0 1.09-12.825 8.052-14.833 8.052-1.057 0-2.455-.642-3.107-1.428zm-6.94-12.725c-5.876-1.69-14.12-7.858-14.12-10.565 0-2.842 3.067-2.38 7.094 1.066 5.868 5.024 11.906 6.046 11.906 2.016 0-.835-1.8-4.031-4-7.104-2.2-3.072-4-6.568-4-7.768 0-2.512 2.465-4.957 5.821-5.776 3.386-.826 11.147 1.851 15.179 5.235 3.284 2.757 3.396 3.043 1.818 4.64-1.582 1.6-1.868 1.545-4.827-.945-5.02-4.223-9.991-4.711-9.991-.98 0 .851 1.8 3.808 4 6.571 4.81 6.04 5.2 9.674 1.365 12.69-2.847 2.24-4.988 2.432-10.245.92zm412.925-.762c-.907-1.695-.155-2.393 6.53-6.061 7.491-4.112 10.925-4.776 10.925-2.113 0 1.058-14.4 10.089-16.088 10.089-.188 0-.803-.862-1.367-1.915zm29.636-3.196c-.413-1.582-.005-2.252 1.634-2.678 4.754-1.236 14.204-6.882 15.559-9.296.903-1.608 1.176-3.579.739-5.321-.675-2.69-.856-2.755-6.404-2.33-3.14.242-8.523 1.004-11.963 1.695-10.214 2.052-15.246-.574-15.246-7.956 0-5.122 4.396-10.18 12.857-14.79 6.018-3.28 6.035-3.282 7.169-1.165 1.365 2.552 1.575 2.316-5.07 5.714-8.479 4.336-10.957 9.561-5.835 12.303 1.358.726 4.284.439 10.46-1.028 10.78-2.56 14.868-2.566 18.438-.023 8.187 5.83 1.99 17.42-13.06 24.425-6.66 3.1-8.56 3.193-9.278.45zm-206.478-9.145c-.573-.69-1.353-2.494-1.733-4.009-.921-3.668-2.13-4.252-3.678-1.774-.781 1.252-2.339 2.039-4.033 2.039H643l-.014-18.25c-.008-10.038-.285-19.263-.616-20.5-.826-3.08-3.37-2.89-3.37.25 0 1.375-.45 2.5-1 2.5s-1-1.07-1-2.378c0-2.482-2.204-5.085-3.342-3.947-.362.362-.658 5.533-.658 11.492 0 6.555-.395 10.833-1 10.833-.606 0-1-4.344-1-11.031 0-9.02-.281-11.14-1.543-11.624-.849-.326-1.725-.41-1.948-.188-.222.223-.717 4.553-1.1 9.624-.383 5.07-1.081 9.219-1.552 9.219-.472 0-.857-3.847-.857-8.55 0-10.37-.758-12.032-10.46-22.937-8.09-9.093-8.658-10.584-14.594-38.295-3.28-15.314-5.464-19.525-12.806-24.69-4.227-2.974-4.573-3.037-19.472-3.544-18.785-.64-15.702-1.825 5.832-2.242l16-.31 9.092-4.216c10.124-4.695 12.696-5.015 19.826-2.47 7.507 2.678 9.897 5.686 12.068 15.19 1.025 4.49 2.244 8.397 2.71 8.685.465.287 7.024-3.093 14.575-7.513 13.714-8.027 18.637-10.26 25.229-11.446 5.455-.98 6.296.112 4.391 5.703-.889 2.61-1.453 4.879-1.253 5.044.199.166 10.712-1.636 23.362-4.004 12.65-2.368 25.304-4.328 28.12-4.355 5.117-.05 5.119-.049 5.704 3.561.475 2.923-.167 5.11-3.369 11.478-2.175 4.327-3.955 8.552-3.955 9.389 0 .837-.45 1.522-1 1.522s-1.007-1.913-1.015-4.25c-.02-5.346-1.337-7.798-3.193-5.942-.95.949-1.385 6.844-1.643 22.238-.202 12.046-.733 20.711-1.25 20.392-.494-.306-.899-9.754-.899-20.997S715.62 657 715.155 657c-.465 0-1.59.823-2.5 1.829-1.456 1.609-1.655 5.155-1.655 29.5 0 17.78-.357 27.671-1 27.671-.642 0-1-9.647-1-26.941 0-17.402-.365-27.166-1.03-27.577-.566-.35-2.607.748-4.535 2.44-1.927 1.693-4.389 3.078-5.47 3.078-1.779 0-1.965.71-1.965 7.5 0 4.333-.422 7.5-1 7.5-.55 0-1-2.475-1-5.5 0-5.625-.815-6.544-4-4.512-1.263.806-1.454 3.886-1.207 19.485.195 12.377-.054 18.527-.75 18.527-.683 0-1.043-5.818-1.043-16.833 0-9.259-.249-17.082-.553-17.387-.841-.84-9.734 2.072-10.63 3.482-.432.68-.793 4.05-.802 7.488-.009 3.49-.457 6.25-1.015 6.25-.55 0-1-2.495-1-5.545v-5.546l-3.75.677c-5.063.914-7.25 2.16-7.25 4.13 0 1.94 7.574 13.842 9.915 15.581 4.154 3.086 8.055 12.956 8.074 20.43.006 2.325 1.188 7.275 2.627 11 1.438 3.725 2.705 9.023 2.815 11.773.11 2.75.558 6.688.996 8.75.715 3.37.588 3.75-1.248 3.75-1.134 0-2.314.85-2.65 1.91-1.095 3.45-3.327 4.582-5.376 2.728-2.727-2.467-3.695-2.03-5.46 2.46-1.95 4.966-3.502 4.752-6.193-.857-1.1-2.293-2.525-4.185-3.167-4.205-.642-.02-1.94 1.989-2.886 4.464-1.809 4.736-2.541 5.296-4.244 3.244zm-263.554-3.806-2.62-2.061 6.485-7.969c7.194-8.838 7.909-11.576 4.031-15.453-1.808-1.809-3.534-2.455-6.556-2.455-3.803 0-4.626.55-11.33 7.564l-7.227 7.563-2.716-2.136c-1.494-1.175-2.716-2.674-2.716-3.332 0-1.485 19.131-20.659 20.613-20.659 1.805 0 4.66 3.713 3.436 4.47-1.806 1.116-.308 2.233 3.893 2.905 2.688.43 5.277 1.864 7.946 4.404 4.825 4.59 5.95 8.27 3.844 12.577-1.812 3.706-12.398 16.644-13.62 16.644-.463 0-2.022-.928-3.463-2.062zm494.283-23.03c-7.388-8.302-13.53-15.39-13.648-15.75-.119-.362.943-1.504 2.36-2.537l2.575-1.88 5.59 5.59 5.591 5.591 2.065-3.681c3.767-6.715 12.568-10.713 18.33-8.326 1.518.629 6.123 4.23 10.233 8.004l7.472 6.86-2.424 2.61c-1.334 1.436-2.875 2.611-3.425 2.611-.55 0-4.248-3.15-8.219-7-6.262-6.073-7.703-7-10.873-7-2.667 0-4.317.715-6.107 2.646-4.092 4.416-3.306 7.416 4.048 15.429 3.575 3.895 6.5 7.472 6.5 7.947 0 1.07-4.05 3.978-5.54 3.978-.603 0-7.14-6.792-14.528-15.093zM343.5 737.692c-5.182-2.486-13.623-10.673-15.697-15.226-.953-2.092-.92-2.776.163-3.446 2.021-1.25 3.23-.412 6.534 4.531 5.225 7.815 12.492 11.538 17.483 8.957 3.576-1.85 3.287-3.005-.964-3.855-1.68-.336-4.986-2.568-7.44-5.023-4.899-4.898-6.935-10.981-5.31-15.855 1.263-3.787 6.993-8.547 11.25-9.345 7.837-1.47 17.497 3.76 21.526 11.657 1.388 2.72 2.671 3.865 4.59 4.094 5.785.69 5.055 2.908-3.78 11.487-4.595 4.462-9.838 9.345-11.652 10.85-4.64 3.852-10.292 4.25-16.703 1.174zm18.756-14.37c2.125-1.473 4.317-3.524 4.87-4.56C369.84 713.694 363.065 705 356.4 705c-12.622 0-15.58 14.53-3.984 19.579 4.371 1.903 5.488 1.76 9.841-1.256zm189.933 13.638c-1.204-1.121-2.199-2.359-2.211-2.75-.012-.391-.29-19.276-.618-41.966-.463-32.083-.32-41.588.645-42.75 1.358-1.638 5.549-2.026 6.432-.597.305.494.584 13.431.62 28.75.036 15.319.518 34.464 1.07 42.546 1.02 14.937.511 18.806-2.474 18.806-.702 0-2.26-.918-3.464-2.039zm-94.293-9.844-2.326-1.883-.035-43.367c-.02-23.852.13-59.567.333-79.367.362-35.425.406-36.074 2.715-40.647 2.158-4.273 2.297-5.457 1.73-14.75-.338-5.556-.329-10.103.022-10.103.35 0 2.055 2.81 3.788 6.244l3.153 6.245-.243 30.005c-.134 16.503-.607 39.006-1.05 50.006-.444 11-.847 37.347-.895 58.55-.089 38.945-.269 40.95-3.677 40.95-.654 0-2.236-.847-3.515-1.883zm469.58-7.375c-3.864-3.433-8.713-7.63-10.776-9.325l-3.75-3.083 2.097-2.667c1.154-1.467 2.531-2.667 3.06-2.667 1.359 0 22.328 18.09 22.698 19.58.315 1.27-3.46 4.426-5.278 4.412-.565-.004-4.188-2.817-8.052-6.25zm9.94-16.328c-6.004-4.723-11.1-8.77-11.327-8.994-.225-.224.43-1.336 1.457-2.47 1.278-1.413 2.59-1.882 4.16-1.488 2.005.504 2.294.203 2.294-2.387 0-1.681 1.032-4.163 2.385-5.737 2.07-2.406 2.603-2.593 4.023-1.414 1.477 1.226 1.488 1.585.115 3.682-.838 1.278-1.523 3.901-1.523 5.83 0 3.167.78 4.152 8.05 10.167l8.051 6.66-2.225 2.369c-1.223 1.302-2.746 2.368-3.384 2.368-.638 0-6.072-3.864-12.076-8.586zm-205.75 1.92c-.366-.367-.666-9.616-.666-20.553 0-18.787.124-20.102 2.25-23.825 1.238-2.167 2.53-3.944 2.87-3.948.92-.012 1.762 9.429 2.506 28.098.642 16.092.597 16.671-1.482 18.75-2.154 2.154-4.238 2.717-5.477 1.477zm-408.492-2.648c-1.196-1.273-2.174-2.766-2.174-3.318 0-1.115 22.171-17.368 23.692-17.368.528 0 1.972 1.078 3.21 2.396l2.252 2.397-11.827 9.097c-6.505 5.004-12.086 9.1-12.403 9.104-.316.003-1.554-1.036-2.75-2.308zm583.076.652c-1.707-.69-1.58-4.82.195-6.292 2.033-1.688 5.967-.9 6.382 1.278.643 3.372-3.264 6.35-6.577 5.014zM803.02 688.75c-1.754-3.995-1.892-8.736-2.287-78.98l-.42-74.73 2.593.617c1.427.34 3.94 1.149 5.584 1.799l2.99 1.182-.34 29.56c-.249 21.512-.028 29.753.808 30.27.865.534.863 1.055-.007 2.104-.854 1.03-.997 11.133-.547 38.66.335 20.498.875 39.835 1.198 42.973.535 5.184.355 5.939-1.956 8.25-3.62 3.62-5.457 3.209-7.615-1.705zm-490.52-3.312c-4.82-2.49-12.059-10.213-14.974-15.975-2.906-5.744-3.005-8.747-.304-9.267 1.237-.239 2.488 1.387 4.607 5.988 4.46 9.689 11.52 15.305 16.133 12.836 2.651-1.418 2.667-5.836.05-14.18-2.54-8.106-2.525-11.918.06-15.205 1.656-2.105 2.924-2.635 6.305-2.635 6.082 0 12.314 4.288 17.484 12.03 4.458 6.676 4.722 8.286 1.436 8.773-1.566.232-2.758-.958-5.082-5.076-4.438-7.863-10.94-11.173-14.21-7.233-1.358 1.636-1.285 2.174 1.953 14.337 1.874 7.04 2.028 8.789.992 11.29-2.364 5.706-8.317 7.485-14.45 4.317zm653.5-.171c-.825-.317-4.836-2.82-8.914-5.563-6.02-4.049-7.713-4.77-9-3.839-2.844 2.058-4.203 2.418-5.235 1.386-.687-.687-.599-1.682.273-3.077 1.09-1.747 1.016-2.362-.491-4.027-1.664-1.84-1.674-2.168-.142-5.13 1.622-3.136 1.66-3.149 4.261-1.444 2.606 1.708 2.648 1.693 5.815-2.08 2.168-2.582 3.71-3.6 4.812-3.178 2.261.868 2.029 2.461-.923 6.332l-2.545 3.336 7.673 5.008c4.22 2.755 8.482 5.009 9.472 5.009.99 0 2.908-1.417 4.263-3.149 1.638-2.093 3.004-2.941 4.073-2.53 2.715 1.04 1.818 3.468-3.208 8.682-4.564 4.735-6.664 5.614-10.184 4.264zm-615.433-4.193c-2.047-2.262-1.77-4.916.672-6.455 1.4-.882 2.249-.586 4.352 1.518 2.215 2.214 2.44 2.937 1.476 4.738-1.416 2.645-4.209 2.73-6.5.2zm631.074-13.576c-1.707-1.707-1.615-1.95 2.231-5.89 5.112-5.235 6.635-8.958 4.526-11.067-1.764-1.764-3.231-1.143-11.757 4.973-2.673 1.917-5.935 3.486-7.25 3.486-3.414 0-6.393-3.384-6.382-7.25.01-3.53 4.464-12.084 7.906-15.183 1.974-1.777 2.277-1.803 3.757-.324 1.48 1.48 1.312 1.958-2.071 5.91-3.85 4.497-4.418 8.076-1.376 8.655.948.181 4.606-1.727 8.127-4.24 6.845-4.884 11.25-5.823 14.075-2.998 4.303 4.302 2.208 12.424-5.312 20.604-4.5 4.894-4.767 5.03-6.474 3.324zM276.719 650.75c-6.505-9.825-15.014-24.222-21.827-36.926C248.1 601.158 239 580.409 239 577.588c0-1.361 5.42-3.568 8.798-3.582.714-.003 5.573 2.244 10.799 4.994 10.082 5.306 13.921 6.021 18.767 3.494 1.576-.822 3.208-1.494 3.627-1.494.42 0 1.766 2.362 2.992 5.25 3.32 7.82 15.644 30.263 21.003 38.25 8.301 12.373 9.169 10.027-7.942 21.47-8.248 5.517-15.413 10.03-15.923 10.03-.51 0-2.49-2.362-4.402-5.25zm493.09-5c-.917-1.638-1.363-11.012-1.637-34.486l-.377-32.236 2.853-1.092c3.375-1.292 5.94-.072 5.672 2.698-.099 1.022.19 14.87.641 30.776.85 29.918.529 33.722-3 35.611-2.517 1.347-2.72 1.285-4.151-1.271zM995 632.008c-7.425-5.445-13.896-10.517-14.379-11.27-.603-.94 1.813-6.385 7.697-17.342 7.986-14.872 16.744-33.919 19.602-42.632.674-2.055 1.643-3.994 2.153-4.31.51-.314 5.72 2.717 11.578 6.737 10.605 7.278 10.677 7.308 16.935 7.155l6.285-.154-3.945 11.014c-4.628 12.919-10.3 26.073-12.814 29.716-.978 1.418-3.793 6.403-6.254 11.078-5.422 10.3-11.556 20.017-12.596 19.954-.419-.026-6.837-4.502-14.262-9.947zm-443.463 2.052c-.81-1.312-2.538-46.894-1.845-48.699.333-.869 2.148-1.361 5.019-1.361h4.497l-.354 23.95c-.21 14.194-.761 24.332-1.354 24.888-1.67 1.565-5.292 2.308-5.963 1.222zm179.526-.325c-1.475-.747-2.798-2.617-3.35-4.735-.944-3.62-.63-46.417.348-47.395.81-.809 8.217 1.358 9.781 2.86 1.092 1.05 1.206 5.891.611 25.913-.718 24.162-.77 24.622-2.842 24.607-1.161-.008-3.208-.57-4.548-1.25zm-41.138-1.002c-.866-.678-2.398-2.498-3.405-4.043-1.609-2.472-1.882-5.724-2.272-27-.244-13.305-.83-24.597-1.301-25.095-.895-.945-16.333 3.784-18.824 5.766-1.054.838-1.232 2.816-.759 8.42.58 6.854.462 7.484-1.827 9.773-3.054 3.054-4.018 3.056-7.057.017-2.294-2.294-2.394-2.874-1.806-10.5.606-7.853.563-8.071-1.592-8.071-1.219 0-3.69 1.125-5.493 2.5-4.2 3.203-5.41 3.145-9.627-.46-3.764-3.217-8.394-3.962-9.338-1.503-.324.846-.586 11.484-.581 23.641.005 12.158-.203 22.315-.46 22.573-.258.257-2.182-.369-4.276-1.391l-3.807-1.86-.5-21.888-.5-21.887-8.448-3.206c-10.384-3.941-11.367-5.519-3.438-5.519 3.18 0 15.705-1.579 27.834-3.508A20677.56 20677.56 0 0 1 674 562.93c10.725-1.68 24.9-3.924 31.5-4.988 6.6-1.064 13.334-1.937 14.964-1.939 2.552-.003 2.76.186 1.5 1.36-.805.749-7.089 3.982-13.964 7.184s-13.269 6.526-14.208 7.387c-2.5 2.29-2.738 37.012-.331 48.4.91 4.31 1.517 9.031 1.347 10.492-.342 2.952-2.48 3.786-4.883 1.906zM525.117 618.64c-.62-.747-2.037-4.002-3.148-7.232-1.853-5.386-1.965-7.376-1.346-24.01l.676-18.137 3.245-2.59c3.24-2.585 3.245-2.586 3.808-.433.31 1.185.305 7.804-.012 14.708-.437 9.533-.186 14.407 1.042 20.26 2.147 10.23 2.088 15.058-.21 17.138-2.217 2.006-2.612 2.035-4.055.296zm-30.341-29.862c-1.985-1.506-3.776-5.922-3.776-9.309 0-2.505 1.595-3.738 6.293-4.861l2.792-.668-.292 7.768c-.31 8.223-1.425 9.795-5.017 7.07zM385 574.487c-10.175-1.255-18.567-2.328-18.649-2.384-.081-.057-4.757-7.865-10.39-17.353-5.634-9.488-10.944-18.06-11.8-19.049-1.666-1.922-.631-1.92-36.8-.083l-11.138.565-12.256 18.909c-6.741 10.4-12.67 18.908-13.177 18.908-.506 0-5.181-2.297-10.39-5.105-10.919-5.886-8.702-5.9-31.596.194-8.083 2.15-15.576 3.911-16.651 3.911-1.175 0-2.78-1.398-4.023-3.504-3.103-5.259-19.441-26.795-28.012-36.924-10.943-12.93-36.1-38.572-37.845-38.572-1.05 0-1.321.67-.92 2.27 2.37 9.442 6.618 44.915 6.636 55.413.01 5.031-.315 6.278-1.739 6.695-4.585 1.344-44.36 7.845-44.871 7.334-.32-.32-.52-6.574-.445-13.897.292-28.052-4.866-57.366-17.54-99.7-3.028-10.11-5.294-18.933-5.036-19.604.445-1.162 27.888-10.511 30.852-10.511 1.98 0 43.657 35.932 59.135 50.984 7.065 6.87 18.5 18.89 25.413 26.711 6.913 7.822 13.013 13.947 13.556 13.611 1.482-.916-.018-33.43-2.274-49.306-2.53-17.795-7.213-41.3-11.547-57.946-1.925-7.396-3.161-13.764-2.747-14.152.704-.66 14.79-4.796 34.038-9.996 5.01-1.354 8.642-1.876 9.19-1.322 1.64 1.656 8.069 28.061 11.608 47.673 4.999 27.695 6.42 41.908 7.114 71.167l.615 25.923 2.373-2.923c4.182-5.153 17.207-27.466 24.763-42.419 8.422-16.666 13.096-27.44 21.052-48.521 3.11-8.241 6.183-15.522 6.828-16.18 1.342-1.367 42.27-9.673 44.137-8.956.735.282 1.485 3.517 1.87 8.073 1.647 19.484 16.432 65.936 33.923 106.579 17.782 41.317 21.322 47.065 20.177 32.75-2.585-32.285-10.052-66.8-23.263-107.53l-4.956-15.28 2.902-1.5c7.353-3.803 29.316-13.44 30.63-13.44 2.403 0 18.071 12.759 28.253 23.008 12.464 12.546 30.801 33.686 41.648 48.014 4.78 6.313 9.152 11.478 9.716 11.478.565 0 1.796-2.7 2.736-6 15.307-53.731 27.176-91.689 29.154-93.237.982-.768 15.698-5.464 31.002-9.893 2.197-.636 3.988 3.3 11.432 25.128 18.046 52.915 29.327 106.68 29.315 139.713l-.003 7.712-3.75.98c-19.458 5.085-37.312 9.364-37.636 9.02-.218-.233-.92-6.948-1.56-14.923-1.463-18.23-4.219-35.196-8.665-53.34-4.75-19.39-7.288-27.66-8.486-27.66-4.067 0-15.742 42.123-19.957 72-.66 4.675-1.625 9.036-2.147 9.692-1.301 1.637-27.74 7.788-28.74 6.687-.44-.484-1.802-4.254-3.028-8.379s-4.244-11.55-6.706-16.5c-8.415-16.913-32.292-50.5-35.9-50.5-.784 0-1.421.113-1.417.25.004.138 1.355 7.45 3.001 16.25 3.358 17.95 5.991 37.568 5.991 44.643 0 5.579 1.246 4.989-21.977 10.408-8.513 1.987-15.821 3.824-16.24 4.083-.42.26.467 2.81 1.971 5.669 1.504 2.858 2.887 5.534 3.074 5.947.576 1.275-10.509.62-29.828-1.763zM332.656 512c4.478 0 5.344-.291 5.344-1.799 0-2.51-11.561-33.555-12.629-33.91-.796-.265-18.407 32.36-19.225 35.617-.295 1.176 1.423 1.3 10.406.75 5.917-.362 13.164-.658 16.104-.658ZM738 547.567c0-28.597-.485-29.739-6.587-15.493-2.137 4.99-4.39 9.492-5.006 10.003-1.18.98-23.12 4.715-72.907 12.412-16.5 2.551-33.6 5.233-38 5.96-4.4.728-8.31 1.037-8.69.687-.38-.35-1.159-7.611-1.73-16.136-1.816-27.086-6.265-55.94-12.26-79.5-2.24-8.8-4.27-16.9-4.513-18-.355-1.601 1.8-3.596 10.802-10 6.184-4.4 12.177-8.494 13.317-9.097 1.456-.77 7.888-.855 21.574-.285 10.725.447 31.397 1.266 45.937 1.82 19.054.726 26.772 1.364 27.637 2.285.66.702 2.61 5.875 4.332 11.496 1.723 5.62 3.4 10.917 3.728 11.77.533 1.388-3.607 1.523-39.463 1.281-25.776-.174-40.39.087-40.984.73-.572.618-.138 4.394 1.137 9.897l2.063 8.897 15.556-.64c8.557-.353 25.79-1.174 38.295-1.826 12.506-.652 22.966-.957 23.246-.677.844.844-2.224 21.83-3.398 23.246-.629.757-4.381 1.588-8.84 1.957-27.393 2.265-58.108 4.635-60.148 4.64l-2.402.006.653 10.667c.359 5.868.802 10.817.984 11 .183.182 12.445-1.264 27.25-3.214 14.804-1.95 35.393-4.597 45.752-5.884 10.36-1.287 19.313-2.817 19.897-3.401 2.108-2.108-6.194-37.742-14.706-63.122-3.035-9.05-5.145-16.827-4.69-17.283.457-.456 7.863-3.048 16.459-5.76l15.629-4.933 12.13 1.979c36.046 5.88 81.354 18.55 100.052 27.979 21.434 10.808 27.737 24.583 15.917 34.787-3.566 3.079-16.93 8.491-27.777 11.25-11.237 2.857-14.374 4.153-12.583 5.198.46.269 7.812 3.244 16.337 6.613 8.525 3.368 21.753 9.274 29.395 13.124 7.642 3.85 14.054 7 14.25 7 .826 0 .215-7.378-1.677-20.27-2.52-17.163-8.48-41.098-14.989-60.193-2.738-8.034-4.979-15.181-4.979-15.883 0-.762 6.471-3.4 16.078-6.556l16.078-5.28 15.172 2.664c44.425 7.804 85.6 20.303 103.827 31.518l4.885 3.006.884-2.253c.486-1.24 1.662-4.45 2.614-7.137 3.394-9.583 14.589-17.191 31.962-21.72 7.877-2.055 11.308-2.347 27.5-2.345 17.422.002 18.964.16 26.457 2.685 4.376 1.476 8.147 2.494 8.378 2.262.232-.231-1.03-4.02-2.804-8.42-1.773-4.4-3.052-8.516-2.841-9.147.52-1.559 39.94-17.223 40.83-16.225.389.437 2.36 8.669 4.38 18.294l7.729 36.791c2.23 10.61 3.841 19.844 3.582 20.52-.366.954-27.634 7.738-30.944 7.698-.403-.005-1.882-2.275-3.285-5.045-7.777-15.346-24.214-22.93-47.1-21.733-9.775.51-15.55 2.692-16.211 6.121-.936 4.858 3.492 6.936 54.829 25.724 35.102 12.846 55.137 24.042 62.413 34.875 8.555 12.738.812 27.815-18.266 35.568-25.114 10.204-63.045 10.117-105.092-.243l-10.445-2.573-14.055 4.829-14.055 4.829-12.242-8.597c-15.582-10.943-32.01-19.305-49.758-25.329-11.758-3.99-15.53-4.826-23.552-5.217l-9.552-.466.827 9.374c.455 5.156.703 14.549.552 20.874l-.275 11.5-20 3.71c-11 2.04-21.462 3.727-23.25 3.75L896 571v-7.5c0-5.327-.362-7.503-1.25-7.512-.688-.006-4.724 1.192-8.97 2.663l-7.72 2.674-5.28-3.773c-20.896-14.933-37.12-23.5-56.583-29.883-13.536-4.438-24.496-6.535-30.536-5.844-2.825.323-2.837.354-2.275 6 .311 3.121.854 12.266 1.206 20.32.6 13.732.523 14.682-1.226 15.214-1.026.312-10.866 2.184-21.866 4.16-11 1.977-20.788 3.824-21.75 4.105-1.633.477-1.75-1.131-1.75-24.057zm410.142-14.59c7.054-1.96 7.523-6.112 1.097-9.722-2.056-1.155-17.914-7.262-35.239-13.57-47.3-17.22-52.595-19.495-65.423-28.097-3.786-2.539-6.96-4.497-7.056-4.352-.095.145-1.13 1.855-2.297 3.8-3.93 6.547-17.062 12.614-39.19 18.107-3.008.746-5.483 1.78-5.5 2.295-.02.516 5.366 3.017 11.966 5.558 6.6 2.54 16.22 6.506 21.376 8.812 5.157 2.305 9.814 4.192 10.348 4.192.534 0 4.483-2.475 8.776-5.5 7.82-5.51 10.293-6.452 11.56-4.402 1.355 2.192 15.539 10.756 22.865 13.806 8.877 3.696 24.193 7.905 32.878 9.036 9.09 1.183 29.632 1.206 33.839.037zM1030.25 506.5c-2.888-1.312-5.25-2.855-5.25-3.428s2.813-2.448 6.25-4.167c3.438-1.718 7.786-4.28 9.664-5.69l3.414-2.566 6.336 3.285c3.485 1.807 6.336 3.63 6.336 4.051 0 .421-1.32 1.03-2.935 1.353-1.614.323-5.917 2.629-9.563 5.125-3.646 2.496-7.163 4.512-7.815 4.48-.653-.031-3.55-1.13-6.437-2.443zM813 491.843c20.94-4.479 25.49-10.716 13.44-18.425-12.466-7.974-32.933-14.745-48.494-16.043-8.739-.729-8.7-.761-6.545 5.345.77 2.184 2.583 9.778 4.026 16.876 1.444 7.097 2.849 13.53 3.122 14.294.69 1.933 21.67.686 34.451-2.047zm149 1.702c17.974-2.425 30-7.462 30-12.567 0-4.246-15.424-13.53-30.5-18.36-8.848-2.834-23.585-5.618-29.738-5.618-3.276 0-3.865.29-3.346 1.642 1.625 4.233 5.65 19.733 7.17 27.608l1.688 8.75 7.113-.02c3.912-.01 11.838-.656 17.613-1.435zm-424.452 52.532c-.314-.508-1.916-1.218-3.56-1.58-3.93-.863-3.977-2.762-.46-18.247.605-2.667 3.113-2.991 3.867-.5.919 3.038 2.59 14.615 2.597 18 .007 3.106-1.233 4.287-2.444 2.327zM454.5 434.232c-11.728-12.31-26.974-25.315-33.22-28.338-6.408-3.103-11.494-2.239-26.147 4.441-6.802 3.101-12.714 5.424-13.138 5.162-.423-.262-1.792-4.193-3.04-8.737-3.7-13.462-2.907-30.328 2.158-45.94 2.982-9.192 10.063-23.781 15.411-31.752 5.377-8.015 5.26-8.747-2.038-12.626C371.7 304.327 357.64 288.478 357.724 275c.04-6.474 3.282-16.014 10.45-30.756 14.579-29.988 37.424-49.851 61.221-53.23 21.682-3.077 56.746 8.343 78.011 25.408 3.798 3.048 7.687 5.79 8.641 6.093.955.303 5.148-.805 9.319-2.462 29.089-11.555 54.178-11.705 82.134-.49 28.9 11.595 33.902 12.057 52.285 4.833 6.443-2.532 13.104-5.19 14.803-5.906 1.698-.717 7.998-2.58 14-4.14 9.728-2.53 12.539-2.83 25.912-2.771 12.987.057 16.235.414 24.2 2.66 5.06 1.427 12.71 4.185 16.999 6.13 8.963 4.065 8.806 4.103 17.607-4.286 10.552-10.056 26.572-18.667 42.194-22.679 9.549-2.452 12.913-2.828 25.5-2.854 11.257-.023 15.828.378 20.44 1.793 13.536 4.155 26.808 13 35.133 23.415 3.932 4.92 13.863 23.86 23.982 45.742 1.71 3.698 2.944 8.331 3.215 12.075.652 8.987-2.428 14.319-16.16 27.974-9.083 9.034-12.524 11.74-18.86 14.837-4.706 2.3-7.75 4.396-7.75 5.338 0 .853 1.95 4.526 4.333 8.163 9.092 13.875 11.447 19.004 15.665 34.113 4.163 14.915 3.52 43.582-1.033 46.019-.98.524-9.083 3.392-18.007 6.374-19.61 6.551-21.432 7.927-21.242 16.04l.128 5.476-5.172-2.108c-2.845-1.16-11.901-4.195-20.126-6.746l-14.953-4.639.046-15.958c.03-10.46.408-15.958 1.097-15.958.579 0 3.012 2.925 5.408 6.5 2.936 4.381 5.008 6.5 6.356 6.5 1.866 0 2.02-.761 2.283-11.317.253-10.068.473-11.28 2-10.99.945.18 2.983 2.684 4.53 5.567 2.148 4 3.362 5.24 5.128 5.24 3.901 0 5.059-2.592 5.059-11.324 0-4.886.425-8.138 1.093-8.365.6-.205 2.35 1.441 3.886 3.658 1.54 2.223 3.614 4.031 4.624 4.031 2.098 0 8.897-6.407 8.897-8.384 0-.725-.506-2.769-1.124-4.543-.672-1.928-.76-3.589-.218-4.131 1.21-1.21 9.098 2.733 10.423 5.209 1.532 2.862 4.029 17.123 4.834 27.613.738 9.594 2.03 12.692 4.335 10.385.888-.89 1.245-5.505 1.233-15.95-.015-13.078-.329-15.802-2.844-24.699-1.555-5.5-5.062-14.451-7.793-19.891-9.417-18.76-16.177-27.941-34.035-46.225C838.765 294.171 833 287.99 833 287.65c0-.34 1.394-2.885 3.099-5.655 4.247-6.902 3.563-8.137-4.063-7.34-7.147.747-7.439.127-2.907-6.184 3.072-4.278 3.334-7.47.612-7.47-2.315 0-13.133 3.05-16.145 4.552-1.597.796-3.731 1.448-4.743 1.448-2.094 0-7.182-6.462-10.008-12.711-1.695-3.748-1.753-4.574-.526-7.5 7.172-17.115 35.055-25.291 53.742-15.758C863.397 236.814 876 257.841 876 270.97c0 6.439-1.212 9.37-6.56 15.865-2.442 2.967-4.44 5.767-4.44 6.22 0 3.205 7.673.612 12.76-4.312l3.26-3.155 5.271 5.206c2.9 2.863 5.797 5.206 6.44 5.206 1.63 0 5.784-5.675 8.457-11.555 1.902-4.183 2.245-6.64 2.224-15.945-.022-10.319-.246-11.539-3.618-19.696-5.368-12.99-12.512-24.46-19.794-31.782-18.37-18.471-47.537-21-76.521-6.634-10.155 5.034-23.04 15.523-28.936 23.554-2.042 2.782-4.404 5.058-5.247 5.058-.844 0-4.068-1.537-7.165-3.415-8.637-5.24-20.006-9.35-30.55-11.047-25.228-4.06-43.93.824-57.576 15.035-8.607 8.963-8.164 10.022 4.012 9.59 9.224-.326 15.688.887 14.548 2.732-.305.494-3.595 1.422-7.31 2.062-14.134 2.435-28.566 8.06-38.935 15.175-2.3 1.577-4.957 2.868-5.906 2.868-.949 0-4.693-2.023-8.32-4.495-8.963-6.11-22.287-11.342-34.19-13.428-5.442-.953-10.234-2.075-10.649-2.491-.415-.417.307-1.62 1.606-2.672 2.95-2.392 12.535-2.61 17.81-.407 4.031 1.684 6.644.603 5.63-2.33-1.148-3.322-11.939-13.406-18.436-17.228-8.91-5.241-20.672-6.802-37.82-5.018-12.988 1.351-30.953 6.865-39.361 12.081-2.65 1.643-5.424 2.988-6.165 2.988-.742 0-2.93-2.138-4.861-4.75-14.419-19.497-38.82-32.66-60.658-32.723-28.562-.081-49.261 14.424-63.288 44.349-3.886 8.292-4.06 9.094-4.496 20.821-.448 12.046-.414 12.282 2.728 19 3.588 7.671 6.55 11.303 9.22 11.303 1.091 0 3.272-2.194 5.467-5.5 3.792-5.71 6.095-6.75 8.497-3.833 2.587 3.142 9.172 7.333 11.522 7.333 3.17 0 2.957-1.544-.799-5.822-8.668-9.872-10.522-21.87-5.34-34.563 5.304-12.995 19.723-25.112 32.824-27.584 5.163-.974 7.382-.908 12.957.384 11.74 2.723 24.285 10.666 28.132 17.812 1.857 3.45 1.863 3.734.17 8.164-.963 2.525-3.644 6.68-5.957 9.235l-4.205 4.644-7.634-2.635C455.978 261.59 450 261.16 450 263.57c0 .863 1.374 3.567 3.054 6.008 3.835 5.575 3.19 6.78-3.157 5.908-6.006-.826-7.117.803-3.994 5.857 1.153 1.866 2.097 4.12 2.097 5.01 0 .888-2.962 4.435-6.581 7.881-15.56 14.814-33.799 38.871-40.895 53.938-7.04 14.95-10.946 38.11-8.512 50.481 2.548 12.952 4.222 11.087 5.782-6.439.623-6.993 1.952-15.414 2.955-18.714l1.822-6 4.215-.307 4.214-.308v4.157c0 3.395.624 4.782 3.4 7.558 4.426 4.426 7.085 4.388 9.757-.142 3.049-5.167 4.336-3.912 4.387 4.279.05 7.992 1.395 10.527 5.341 10.064 1.927-.227 3.31-1.655 5.618-5.793 1.683-3.021 3.87-5.649 4.86-5.84 1.686-.324 1.755.445 1.091 12.105-.507 8.906-.386 12.651.427 13.154 2.372 1.465 5.173-.748 8.248-6.517 1.75-3.285 3.675-5.808 4.277-5.607.713.239 1.128 5.04 1.19 13.782.093 12.831 1.346 20.178 5.996 35.165.99 3.192-1 1.575-11.092-9.018zm573.1-13.482c-1.481-28.688-5.136-47.66-14.976-77.75-18.133-55.447-46.861-101.57-88.772-142.524-45.08-44.052-97.902-75.212-159.918-94.338-16.177-4.99-20.063-5.953-42.934-10.638-27.27-5.587-48.312-7.509-81.895-7.48-37.07.033-64.363 3.34-99.126 12.013-37.564 9.372-71.293 22.583-102.267 40.057-55.443 31.278-101.168 74.541-133.9 126.69-14.168 22.574-30.6 58.796-36.846 81.22-7.43 26.677-11.919 47.401-11.95 55.168-.033 7.79-2.44 9.231-3.479 2.082-.776-5.343-6.072-26.266-7.73-30.538-.595-1.534-1.89-3.221-2.878-3.75-2.303-1.233-8.224-1.191-13.811.097-2.41.556-4.584.809-4.83.562-1.35-1.35 13.262-52.883 18.89-66.621 3.507-8.561 10.797-23.287 19.8-40 23.405-43.445 61.176-86.583 108.898-124.37 3.304-2.616 20.005-13.775 39.124-26.14 16.831-10.886 62.622-31.86 84-38.475 27.529-8.519 62.44-16.406 91.5-20.67 18.019-2.644 20.859-2.789 55-2.803 37.445-.015 41.478.275 70.974 5.093 28.67 4.684 78.974 17.359 94.306 23.762 34.642 14.469 56.4 25.798 82.739 43.082 28.545 18.732 50.976 37.307 75.802 62.773 5.91 6.062 29.205 34.424 36.754 44.748 4.503 6.158 18.753 29.708 22.527 37.228 2.007 4 4.51 8.491 5.563 9.981 6.655 9.422 18.797 43.592 28.357 79.799 6.822 25.836 9.478 40 9.478 50.532 0 6.865-.658 7.847-6 8.955-7.425 1.54-19.14 6.8-24.622 11.057-3.15 2.447-6.035 4.448-6.411 4.448-.376 0-.991-5.962-1.367-13.25zm-438.932 6.088c-1.207-4.616 4.573-9.67 16.955-14.825 8.315-3.461 26.892-6.988 37.471-7.113 9.195-.11 26.416 4.3 35.812 9.167l7.594 3.935-7-.427c-10.108-.616-14.595-1.585-17.592-3.801-2.462-1.82-4.057-1.931-23.026-1.603-17.005.294-20.912.64-23.582 2.09-1.76.957-4.172 1.739-5.36 1.739-1.187 0-6.143 2.925-11.014 6.5-4.87 3.575-9.044 6.5-9.274 6.5-.23 0-.673-.973-.984-2.162zm123.435-24.328c-6.55-12.803-21.782-35.387-25.458-37.745-4.13-2.65-4.687 1.375-1.554 11.235 2.017 6.348 7.909 32.227 7.909 34.737 0 2.087-3.34 1.45-11.22-2.141-7.22-3.29-7.546-3.591-9.741-9-1.628-4.01-2.805-5.596-4.155-5.596-1.416 0-1.884.727-1.884 2.929 0 4.93-2.444 6.414-9.368 5.69-3.29-.344-6.775-1.343-7.744-2.22-1.652-1.496-3.746-9.322-5.591-20.899-.648-4.068-1.17-5-2.797-5-1.745 0-2.231 1.273-3.818 10-2.738 15.057-2.387 14.564-12.52 17.585-5.85 1.744-7.573.568-7.967-5.437-.187-2.848-.781-4.648-1.535-4.648-.677 0-2.668 2.916-4.426 6.479-3.078 6.243-3.488 6.627-11.257 10.533-4.434 2.23-8.493 3.787-9.02 3.462-.526-.326-.957-2.366-.957-4.533 0-4.324 5.66-27.978 8.935-37.348 1.136-3.248 2.065-6.51 2.065-7.25 0-6.081-12.619 7.98-22.353 24.907-1.502 2.612-3.05 4.748-3.44 4.746-.893-.005-4.207-7.976-4.207-10.122 0-.882.9-2.748 2-4.147 1.1-1.398 2-3.306 2-4.24 0-1.42-.693-1.603-4.25-1.122-2.337.317-8.075.862-12.75 1.21-13.592 1.016-40.08-3.584-62.79-10.904-11.353-3.66-11.857-5.32-1.788-5.891 2.707-.154 5.09-.791 5.295-1.416.206-.625-1.961-2.573-4.815-4.33-10.006-6.156-25.41-22.926-23.142-25.194.762-.762 1.738-.605 3.378.544 1.269.889 3.802 1.616 5.63 1.616 3.285 0 3.316-.042 2.69-3.75-.348-2.063-.813-4.425-1.034-5.25-.22-.825-3.735-3.465-7.81-5.867-9.738-5.74-19.092-15.052-18.138-18.058 1.06-3.34 17.208-16.795 29.728-24.77 6.213-3.958 12.084-7.494 13.046-7.858 3.103-1.172 1.942 1.87-2.204 5.77-4.612 4.34-15.663 20.408-16.598 24.134-1.053 4.196 4.066 8.22 26.82 21.082 15.99 9.037 48.914 24.7 62.938 29.94 11.627 4.344 21.447 4.888 31.35 1.734 3.27-1.04 8.533-2.424 11.698-3.072 5.988-1.228 8.374-3.45 7.324-6.823-.294-.941-.993-4.984-1.555-8.982-1.018-7.247-5.055-17.657-8.988-23.18-2.86-4.017-.845-4.905 3.54-1.561 6.056 4.62 15.725 17.139 21.44 27.761 6.472 12.03 8.608 13.175 10.53 5.642 2.034-7.973 6.66-15.07 15.955-24.472 9.07-9.174 12.945-12.127 13.895-10.59.284.46-.614 2.5-1.995 4.532-4.395 6.469-7.203 15.593-7.956 25.863-.806 10.97-.778 11.012 8.056 12.132 2.75.348 9.004 1.852 13.899 3.341l8.898 2.708 10.602-2.718c25.006-6.411 52.827-18.788 75.101-33.411 15.485-10.166 22.926-16.133 23.633-18.952.807-3.213-5.359-12.493-15.497-23.327-4.478-4.784-7.583-8.886-7.106-9.387 1.056-1.107 16.993 8.656 26.47 16.215 10.417 8.308 19.5 17.262 19.5 19.222 0 2.532-9.597 11.866-17.823 17.334-3.926 2.61-7.375 5.13-7.665 5.599-.29.47-.81 2.915-1.156 5.436-.595 4.345-.504 4.581 1.758 4.548 1.312-.02 3.511-.679 4.886-1.465 3.302-1.888 5-1.858 5 .086 0 2.215-11 13.437-19.715 20.111-9.006 6.899-9.746 9.601-2.535 9.266 6.584-.306 7.25-.168 7.25 1.511 0 1.958-3.51 3.658-15.353 7.439-14.924 4.764-37.98 8.064-56.428 8.077-12.605.008-15.382.27-15.853 1.499-.335.872 1.498 4.29 4.423 8.25 4.678 6.333 15.111 23.705 16.478 27.437.477 1.304-.412 2.026-4.005 3.25-2.54.866-5.1 1.567-5.69 1.558-.59-.01-4.4-6.522-8.47-14.474zm-161.255-50.962c5.282-1.676 1.73-3.85-15.848-9.696-9.625-3.202-21.253-7.228-25.84-8.946-5.146-1.928-8.697-2.769-9.271-2.195-2.127 2.127 9.297 13.708 18.111 18.361 7.039 3.716 24.738 5.05 32.848 2.476zm206.089-.485c6.043-1.69 13.605-6.73 19.313-12.868 7.896-8.493 5.973-9.852-6.71-4.74-4.833 1.95-15.82 5.819-24.414 8.6-8.594 2.78-16.053 5.481-16.576 6-1.758 1.748 1.298 3.305 8.69 4.428 7.378 1.12 11.74.806 19.697-1.42z" style="fill:#000"/></svg>